<?xml version="1.0" encoding="UTF-8" standalone="no"?>
<!-- Created with Inkscape (http://www.inkscape.org/) -->

<svg
   xmlns:dc="http://purl.org/dc/elements/1.1/"
   xmlns:cc="http://creativecommons.org/ns#"
   xmlns:rdf="http://www.w3.org/1999/02/22-rdf-syntax-ns#"
   xmlns:svg="http://www.w3.org/2000/svg"
   xmlns="http://www.w3.org/2000/svg"
   xmlns:xlink="http://www.w3.org/1999/xlink"
   xmlns:sodipodi="http://sodipodi.sourceforge.net/DTD/sodipodi-0.dtd"
   xmlns:inkscape="http://www.inkscape.org/namespaces/inkscape"
   width="500"
   height="500"
   id="svg2"
   version="1.1"
   inkscape:version="0.48.5 r10040"
   sodipodi:docname="webtech.svg">
  <defs
     id="defs4">
    <linearGradient
       y2="497.01645"
       x2="369.54318"
       y1="493.0726"
       x1="358.55759"
       gradientUnits="userSpaceOnUse"
       id="linearGradient56836"
       xlink:href="#linearGradient56730"
       inkscape:collect="always" />
    <linearGradient
       y2="522.42267"
       x2="369.60568"
       y1="502.60736"
       x1="355.04477"
       gradientUnits="userSpaceOnUse"
       id="linearGradient56834"
       xlink:href="#linearGradient56746"
       inkscape:collect="always" />
    <linearGradient
       y2="504.64526"
       x2="376.39145"
       y1="527.94977"
       x1="393.68567"
       gradientUnits="userSpaceOnUse"
       id="linearGradient56832"
       xlink:href="#linearGradient56762"
       inkscape:collect="always" />
    <linearGradient
       y2="517.00543"
       x2="379.55869"
       y1="532.0708"
       x1="359.33994"
       gradientUnits="userSpaceOnUse"
       id="linearGradient56830"
       xlink:href="#linearGradient56754"
       inkscape:collect="always" />
    <linearGradient
       y2="509.96875"
       x2="361.78125"
       y1="493.0726"
       x1="384.90366"
       gradientUnits="userSpaceOnUse"
       id="linearGradient56828"
       xlink:href="#linearGradient56738"
       inkscape:collect="always" />
    <linearGradient
       y2="535.31244"
       x2="348.23254"
       y1="529.5412"
       x1="348.15286"
       gradientUnits="userSpaceOnUse"
       id="linearGradient56826"
       xlink:href="#linearGradient56708"
       inkscape:collect="always" />
    <linearGradient
       y2="535.31244"
       x2="348.23254"
       y1="529.48694"
       x1="348.48141"
       gradientUnits="userSpaceOnUse"
       id="linearGradient56824"
       xlink:href="#linearGradient56692"
       inkscape:collect="always" />
    <linearGradient
       y2="535.31244"
       x2="348.23254"
       y1="529.4101"
       x1="348.19516"
       gradientUnits="userSpaceOnUse"
       id="linearGradient56822"
       xlink:href="#linearGradient56714"
       inkscape:collect="always" />
    <linearGradient
       y2="535.31244"
       x2="348.23254"
       y1="529.4101"
       x1="348.42719"
       gradientUnits="userSpaceOnUse"
       id="linearGradient56820"
       xlink:href="#linearGradient56722"
       inkscape:collect="always" />
    <linearGradient
       gradientUnits="userSpaceOnUse"
       y2="504.64526"
       x2="376.39145"
       y1="527.94977"
       x1="393.68567"
       id="linearGradient56768"
       xlink:href="#linearGradient56762"
       inkscape:collect="always" />
    <linearGradient
       gradientUnits="userSpaceOnUse"
       y2="517.00543"
       x2="379.55869"
       y1="532.0708"
       x1="359.33994"
       id="linearGradient56760"
       xlink:href="#linearGradient56754"
       inkscape:collect="always" />
    <linearGradient
       gradientUnits="userSpaceOnUse"
       y2="522.42267"
       x2="369.60568"
       y1="502.60736"
       x1="355.04477"
       id="linearGradient56752"
       xlink:href="#linearGradient56746"
       inkscape:collect="always" />
    <linearGradient
       gradientUnits="userSpaceOnUse"
       y2="509.96875"
       x2="361.78125"
       y1="493.0726"
       x1="384.90366"
       id="linearGradient56744"
       xlink:href="#linearGradient56738"
       inkscape:collect="always" />
    <linearGradient
       gradientUnits="userSpaceOnUse"
       y2="497.01645"
       x2="369.54318"
       y1="493.0726"
       x1="358.55759"
       id="linearGradient56736"
       xlink:href="#linearGradient56730"
       inkscape:collect="always" />
    <linearGradient
       gradientUnits="userSpaceOnUse"
       y2="535.31244"
       x2="348.23254"
       y1="529.4101"
       x1="348.42719"
       id="linearGradient56728"
       xlink:href="#linearGradient56722"
       inkscape:collect="always" />
    <linearGradient
       gradientUnits="userSpaceOnUse"
       y2="535.31244"
       x2="348.23254"
       y1="529.4101"
       x1="348.19516"
       id="linearGradient56720"
       xlink:href="#linearGradient56714"
       inkscape:collect="always" />
    <linearGradient
       gradientUnits="userSpaceOnUse"
       y2="535.31244"
       x2="348.23254"
       y1="529.5412"
       x1="348.15286"
       id="linearGradient56706"
       xlink:href="#linearGradient56708"
       inkscape:collect="always" />
    <linearGradient
       gradientUnits="userSpaceOnUse"
       y2="535.31244"
       x2="348.23254"
       y1="529.48694"
       x1="348.48141"
       id="linearGradient56698"
       xlink:href="#linearGradient56692"
       inkscape:collect="always" />
    <marker
       id="ArrowEnd"
       viewBox="0 0 10 10"
       refX="0"
       refY="5"
       markerUnits="strokeWidth"
       markerWidth="4"
       markerHeight="3"
       orient="auto">
      <path
         d="M 0 0 L 10 5 L 0 10 z"
         id="path1876" />
    </marker>
    <marker
       id="ArrowStart"
       viewBox="0 0 10 10"
       refX="10"
       refY="5"
       markerUnits="strokeWidth"
       markerWidth="4"
       markerHeight="3"
       orient="auto">
      <path
         d="M 10 0 L 0 5 L 10 10 z"
         id="path1879" />
    </marker>
    <linearGradient
       id="linearGradient56692"
       inkscape:collect="always">
      <stop
         id="stop56694"
         offset="0"
         style="stop-color:white;stop-opacity:1;" />
      <stop
         id="stop56696"
         offset="1"
         style="stop-color:white;stop-opacity:0;" />
    </linearGradient>
    <linearGradient
       id="linearGradient56708"
       inkscape:collect="always">
      <stop
         id="stop56710"
         offset="0"
         style="stop-color:white;stop-opacity:1;" />
      <stop
         id="stop56712"
         offset="1"
         style="stop-color:white;stop-opacity:0;" />
    </linearGradient>
    <linearGradient
       id="linearGradient56714"
       inkscape:collect="always">
      <stop
         id="stop56716"
         offset="0"
         style="stop-color:white;stop-opacity:1;" />
      <stop
         id="stop56718"
         offset="1"
         style="stop-color:white;stop-opacity:0;" />
    </linearGradient>
    <linearGradient
       id="linearGradient56722"
       inkscape:collect="always">
      <stop
         id="stop56724"
         offset="0"
         style="stop-color:white;stop-opacity:1;" />
      <stop
         id="stop56726"
         offset="1"
         style="stop-color:white;stop-opacity:0;" />
    </linearGradient>
    <linearGradient
       id="linearGradient56730"
       inkscape:collect="always">
      <stop
         id="stop56732"
         offset="0"
         style="stop-color:white;stop-opacity:1;" />
      <stop
         id="stop56734"
         offset="1"
         style="stop-color:white;stop-opacity:0;" />
    </linearGradient>
    <linearGradient
       id="linearGradient56738"
       inkscape:collect="always">
      <stop
         id="stop56740"
         offset="0"
         style="stop-color:white;stop-opacity:1;" />
      <stop
         id="stop56742"
         offset="1"
         style="stop-color:white;stop-opacity:0;" />
    </linearGradient>
    <linearGradient
       id="linearGradient56746"
       inkscape:collect="always">
      <stop
         id="stop56748"
         offset="0"
         style="stop-color:white;stop-opacity:1;" />
      <stop
         id="stop56750"
         offset="1"
         style="stop-color:white;stop-opacity:0;" />
    </linearGradient>
    <linearGradient
       id="linearGradient56754"
       inkscape:collect="always">
      <stop
         id="stop56756"
         offset="0"
         style="stop-color:white;stop-opacity:1;" />
      <stop
         id="stop56758"
         offset="1"
         style="stop-color:white;stop-opacity:0;" />
    </linearGradient>
    <linearGradient
       id="linearGradient56762"
       inkscape:collect="always">
      <stop
         id="stop56764"
         offset="0"
         style="stop-color:white;stop-opacity:1;" />
      <stop
         id="stop56766"
         offset="1"
         style="stop-color:white;stop-opacity:0;" />
    </linearGradient>
    <radialGradient
       gradientTransform="matrix(1.5089497,0,0,1.3582164,-39.028917,76.957747)"
       gradientUnits="userSpaceOnUse"
       xlink:href="#linearGradient3798"
       id="radialGradient3870"
       fy="-48.544521"
       fx="77.914261"
       r="146"
       cy="-48.544521"
       cx="77.914261" />
    <linearGradient
       gradientUnits="userSpaceOnUse"
       id="linearGradient3798"
       y2="84"
       x2="299"
       y1="84"
       x1="150">
      <stop
         offset="0"
         style="stop-color:#dddce9;stop-opacity:1"
         id="stop3800" />
      <stop
         offset="0.37"
         style="stop-color:#5664a3;stop-opacity:1"
         id="stop3802" />
      <stop
         offset="1"
         style="stop-color:#000000;stop-opacity:1"
         id="stop3804" />
    </linearGradient>
    <radialGradient
       gradientTransform="matrix(2.382716e-8,-0.296405,1.43676,4.683673e-7,-128.544,150.5202)"
       gradientUnits="userSpaceOnUse"
       xlink:href="#linearGradient2795"
       id="radialGradient1480"
       fy="132.28575"
       fx="61.518883"
       r="29.036913"
       cy="132.28575"
       cx="61.518883" />
    <linearGradient
       gradientTransform="matrix(0.562541,0,0,0.567972,-9.399749,-5.305317)"
       gradientUnits="userSpaceOnUse"
       xlink:href="#linearGradient4689"
       id="linearGradient1478"
       y2="114.39767"
       x2="135.66525"
       y1="20.603781"
       x1="26.648937" />
    <linearGradient
       gradientTransform="matrix(0.562541,0,0,0.567972,-9.399749,-5.305317)"
       gradientUnits="userSpaceOnUse"
       xlink:href="#linearGradient4671"
       id="linearGradient1475"
       y2="137.27299"
       x2="112.03144"
       y1="192.35176"
       x1="150.96111" />
    <radialGradient
       gradientTransform="matrix(1,0,0,0.177966,0,108.7434)"
       gradientUnits="userSpaceOnUse"
       xlink:href="#linearGradient2795"
       id="radialGradient2801"
       fy="132.28575"
       fx="61.518883"
       r="29.036913"
       cy="132.28575"
       cx="61.518883" />
    <linearGradient
       gradientTransform="matrix(0.562541,0,0,0.567972,-11.5974,-7.60954)"
       gradientUnits="userSpaceOnUse"
       xlink:href="#linearGradient4689"
       id="linearGradient2258"
       y2="76.313133"
       x2="26.670298"
       y1="76.176224"
       x1="172.94208" />
    <linearGradient
       gradientTransform="matrix(0.562541,0,0,0.567972,-11.5974,-7.60954)"
       gradientUnits="userSpaceOnUse"
       xlink:href="#linearGradient4671"
       id="linearGradient2255"
       y2="144.75717"
       x2="-65.308502"
       y1="144.75717"
       x1="224.23996" />
    <linearGradient
       gradientTransform="translate(100.2702,99.61116)"
       gradientUnits="userSpaceOnUse"
       xlink:href="#linearGradient4671"
       id="linearGradient2250"
       y2="144.75717"
       x2="-65.308502"
       y1="144.75717"
       x1="224.23996" />
    <linearGradient
       gradientTransform="translate(100.2702,99.61116)"
       gradientUnits="userSpaceOnUse"
       xlink:href="#linearGradient4689"
       id="linearGradient2248"
       y2="76.313133"
       x2="26.670298"
       y1="77.475983"
       x1="172.94208" />
    <linearGradient
       gradientTransform="translate(100.2702,99.61116)"
       gradientUnits="userSpaceOnUse"
       xlink:href="#linearGradient4671"
       id="linearGradient2589"
       y2="144.75717"
       x2="-65.308502"
       y1="144.75717"
       x1="224.23996" />
    <linearGradient
       gradientTransform="translate(100.2702,99.61116)"
       gradientUnits="userSpaceOnUse"
       xlink:href="#linearGradient4689"
       id="linearGradient2587"
       y2="76.313133"
       x2="26.670298"
       y1="77.475983"
       x1="172.94208" />
    <linearGradient
       gradientTransform="translate(100.2702,99.61116)"
       gradientUnits="userSpaceOnUse"
       xlink:href="#linearGradient4689"
       id="linearGradient2990"
       y2="76.313133"
       x2="26.670298"
       y1="77.475983"
       x1="172.94208" />
    <linearGradient
       gradientTransform="translate(100.2702,99.61116)"
       gradientUnits="userSpaceOnUse"
       xlink:href="#linearGradient4671"
       id="linearGradient2987"
       y2="144.75717"
       x2="-65.308502"
       y1="144.75717"
       x1="224.23996" />
    <linearGradient
       id="linearGradient4689">
      <stop
         id="stop4691"
         offset="0"
         style="stop-color:#5a9fd4;stop-opacity:1" />
      <stop
         id="stop4693"
         offset="1"
         style="stop-color:#306998;stop-opacity:1" />
    </linearGradient>
    <linearGradient
       id="linearGradient4671">
      <stop
         id="stop4673"
         offset="0"
         style="stop-color:#ffd43b;stop-opacity:1" />
      <stop
         id="stop4675"
         offset="1"
         style="stop-color:#ffe873;stop-opacity:1" />
    </linearGradient>
    <linearGradient
       id="linearGradient3236">
      <stop
         id="stop3244"
         offset="0"
         style="stop-color:#f4f4f4;stop-opacity:1" />
      <stop
         id="stop3240"
         offset="1"
         style="stop-color:#ffffff;stop-opacity:1" />
    </linearGradient>
    <linearGradient
       id="linearGradient3676">
      <stop
         id="stop3678"
         offset="0"
         style="stop-color:#b2b2b2;stop-opacity:0.5" />
      <stop
         id="stop3680"
         offset="1"
         style="stop-color:#b3b3b3;stop-opacity:0" />
    </linearGradient>
    <linearGradient
       id="linearGradient2787">
      <stop
         id="stop2789"
         offset="0"
         style="stop-color:#7f7f7f;stop-opacity:0.5" />
      <stop
         id="stop2791"
         offset="1"
         style="stop-color:#7f7f7f;stop-opacity:0" />
    </linearGradient>
    <linearGradient
       id="linearGradient2795">
      <stop
         id="stop2797"
         offset="0"
         style="stop-color:#b8b8b8;stop-opacity:0.49803922" />
      <stop
         id="stop2799"
         offset="1"
         style="stop-color:#7f7f7f;stop-opacity:0" />
    </linearGradient>
  </defs>
  <sodipodi:namedview
     id="base"
     pagecolor="#ffffff"
     bordercolor="#666666"
     borderopacity="1.0"
     inkscape:pageopacity="0.0"
     inkscape:pageshadow="2"
     inkscape:zoom="1.15"
     inkscape:cx="269.78075"
     inkscape:cy="261.33631"
     inkscape:document-units="px"
     inkscape:current-layer="layer1"
     showgrid="false"
     inkscape:window-width="1920"
     inkscape:window-height="1017"
     inkscape:window-x="0"
     inkscape:window-y="27"
     inkscape:window-maximized="1" />
  <metadata
     id="metadata7">
    <rdf:RDF>
      <cc:Work
         rdf:about="">
        <dc:format>image/svg+xml</dc:format>
        <dc:type
           rdf:resource="http://purl.org/dc/dcmitype/StillImage" />
        <dc:title></dc:title>
      </cc:Work>
    </rdf:RDF>
  </metadata>
  <g
     inkscape:label="Calque 1"
     inkscape:groupmode="layer"
     id="layer1"
     transform="translate(0,-552.36218)">
    <g
       id="Page 1"
       transform="matrix(0.47080814,0,0,0.47080814,357.4971,853.35186)"
       style="fill:none;stroke:none">
      <g
         id="Layer_1">
        <path
           id="Shape"
           d="m 233.164,15.681 -24.688,0 25.674,27.859 0,13.261 -52.882,0 0,-15.526 25.669,0 -25.669,-27.86 0,-13.28 51.896,0 0,15.546 0,0 z m -62.378,0 -24.688,0 25.673,27.859 0,13.261 -52.882,0 0,-15.526 25.672,0 -25.672,-27.86 0,-13.28 51.897,0 0,15.546 0,0 z m -61.768,0.631 -26.64,0 0,24.313 26.64,0 0,16.176 -45.574,0 0,-56.666 45.574,0 0,16.177 0,0 z m 0,0"
           inkscape:connector-curvature="0"
           style="fill:#131313" />
        <path
           id="path3813"
           d="M 27.142,386.29 0.071,82.67 l 297.45,0 -27.096,303.571 -121.811,33.77 L 27.142,386.29 z m 0,0"
           inkscape:connector-curvature="0"
           style="fill:#1572b6" />
        <path
           id="path3815"
           d="m 148.798,394.199 98.427,-27.288 23.157,-259.415 -121.584,0 0,286.703 z m 0,0"
           inkscape:connector-curvature="0"
           style="fill:#33a9dc" />
        <g
           transform="translate(55,142)"
           id="Group">
          <path
             id="path3818"
             d="m 93.797,75.496 49.275,0 3.403,-38.132 -52.678,0 0,-37.239 0.129,0 93.246,0 -0.893,9.991 -9.152,102.616 -83.33,0 0,-37.236 z m 0,0"
             inkscape:connector-curvature="0"
             style="fill:#ffffff" />
          <path
             id="path3820"
             d="m 94.02,172.204 -0.163,0.046 -41.472,-11.199 -2.652,-29.698 -20.151,0 -17.228,0 5.216,58.467 76.278,21.176 0.172,-0.048 0,-38.744 z m 0,0"
             inkscape:connector-curvature="0"
             style="fill:#ebebeb" />
          <path
             id="path3822"
             d="m 139.907,111.156 -4.484,49.87 -41.532,11.21 0,38.742 76.339,-21.158 0.56,-6.29 6.478,-72.374 -37.361,0 z m 0,0"
             inkscape:connector-curvature="0"
             style="fill:#ffffff" />
          <path
             id="path3824"
             d="m 93.926,0.125 0,23.128 0,14.019 0,0.092 -89.828,0 -0.119,0 -0.747,-8.37 -1.697,-18.878 -0.89,-9.991 93.281,0 z m 0,0"
             inkscape:connector-curvature="0"
             style="fill:#ebebeb" />
          <path
             id="path3826"
             d="m 93.797,75.5 0,23.129 0,14.017 0,0.092 -40.828,0 -0.119,0 -0.746,-8.369 -1.698,-18.878 -0.89,-9.991 44.281,0 z m 0,0"
             inkscape:connector-curvature="0"
             style="fill:#ebebeb" />
        </g>
      </g>
    </g>
    <g
       id="layer1-9"
       transform="matrix(0.65482224,0,0,0.65482224,246.48063,403.5176)">
      <path
         style="fill:#000000;fill-opacity:1;fill-rule:evenodd;stroke:none"
         id="path2838"
         d="m -101.47577,400.00486 c -0.0431,8.1975 5.967822,13.08438 15.560005,10.8625 l 0,-21.725 c -9.713433,-2.95812 -15.519375,3.02656 -15.560005,10.8625 m 15.853442,-42.27625 13.21125,0 0,62.53344 c -12.663437,2.07031 -24.79187,3.38344 -33.468442,-1.46813 -11.17187,-6.24625 -12.07,-26.09562 -3.22968,-34.93625 4.48218,-4.48187 13.505622,-7.63718 23.193435,-5.57812 l 0,-19.67 c -0.02531,-0.41688 -0.04875,-0.83188 0.293437,-0.88094"
         inkscape:connector-curvature="0" />
      <path
         style="fill:#000000;fill-opacity:1;fill-rule:evenodd;stroke:none"
         id="path2840"
         d="m -50.979419,371.52699 -13.211251,0 0,-13.79844 13.211251,0 0,13.79844 z"
         inkscape:connector-curvature="0" />
      <path
         style="fill:#000000;fill-opacity:1;fill-rule:evenodd;stroke:none"
         id="path2844"
         d="m 107.55577,411.45442 c 14.40218,5.59688 15.99562,-25.77875 1.46812,-22.89968 -9.02187,1.78812 -8.73218,20.07687 -1.46812,22.89968 m 0.58718,-33.76218 c 10.99844,-1.17594 19.29594,3.6775 22.60625,11.15625 5.64813,12.76031 -0.31062,27.40218 -9.39468,31.70718 -4.70813,2.23125 -9.63813,2.44375 -14.09219,2.055 -13.766874,-1.20062 -22.449374,-15.23062 -17.614999,-30.82656 0.756562,-2.44094 1.606562,-3.93406 2.055312,-4.69719 2.9925,-5.08812 8.044688,-8.49687 16.440307,-9.39468"
         inkscape:connector-curvature="0" />
      <path
         style="fill:#000000;fill-opacity:1;fill-rule:evenodd;stroke:none"
         id="path2848"
         d="m -32.777012,406.46358 c -3.654062,6.14094 5.526875,7.61219 11.449375,5.87187 l 0,-9.10125 c -4.550625,0.63532 -9.730312,0.33969 -11.449375,3.22938 m 23.192813,14.38562 c -10.913125,0.62782 -27.498125,4.34532 -33.468438,-2.93562 -3.5075,-4.27813 -3.130312,-12.43781 0,-16.44094 4.045313,-5.1725 12.875938,-6.30062 20.844375,-7.04594 0.723438,-1.78125 0.235625,-4.67937 -0.587187,-5.87218 -7.28875,-1.85657 -14.530625,1.02031 -19.669688,3.22937 l 0,-10.275 c 7.761875,-3.56625 25.740625,-7.32125 31.119688,0.88063 2.825,4.30781 1.76125,11.82062 1.76125,18.49562 l 0,19.96406 z"
         inkscape:connector-curvature="0" />
      <path
         style="fill:#000000;fill-opacity:1;fill-rule:evenodd;stroke:none"
         id="path2852"
         d="m 36.802301,421.43674 -13.21125,0 0,-17.02813 c 0,-5.60656 0.906875,-12.71562 -2.055625,-14.97281 -2.32,-1.76875 -7.824063,-0.88125 -11.155625,0 l 0,32.00094 -13.2115628,0 0,-40.80844 c 13.5053128,-3.50813 37.8831248,-7.26938 39.6340628,9.68812 0.863437,8.36063 -0.639688,20.90407 0,31.12032"
         inkscape:connector-curvature="0" />
      <path
         style="fill:#000000;fill-opacity:1;fill-rule:evenodd;stroke:none"
         id="path2856"
         d="m 56.472393,407.34433 c 2.223125,3.59687 8.243125,4.94562 13.210938,2.64219 -0.272813,-6.87094 -0.368125,-13.91938 -0.293438,-21.13813 -11.4175,-3.01656 -18.221875,9.91594 -12.9175,18.49594 m 33.175,-27.89031 c -1.175937,3.52156 -2.896875,6.4975 -4.40375,9.68843 -1.361562,0.305 -2.541562,-0.54125 -3.229687,0 -0.30125,14.31094 3.047812,33.71157 -2.642188,44.03719 -3.425937,6.21688 -9.733437,10.20531 -19.376562,10.86281 -7.024688,0.47907 -12.476875,-0.66875 -17.615,-2.64218 l 0,-12.33063 c 6.026562,3.51875 21.255,6.3875 25.541875,-0.88094 1.26125,-2.13843 1.18125,-4.34875 1.76125,-7.63312 -2.76,0.145 -5.439375,1.42312 -8.807188,1.46812 -13.845937,0.18375 -22.411875,-10.84093 -19.083125,-26.12937 1.2875,-5.91375 4.7525,-10.67531 9.395,-13.50469 9.641875,-5.87656 24.462813,-5.43031 38.459375,-2.93562"
         inkscape:connector-curvature="0" />
      <path
         style="fill:#000000;fill-opacity:1;fill-rule:evenodd;stroke:none"
         id="path2860"
         d="m -50.979389,378.51405 c -0.015,9.72844 -0.0128,16.71906 -0.01375,28.53781 -0.56125,11.61469 -0.430625,20.86375 -4.683438,26.42125 -0.83875,1.09594 -2.62,2.69469 -4.110312,3.81688 -1.251564,0.94218 -3.636876,2.85281 -4.990939,2.93593 -1.365,0.0838 -4.871875,-1.895 -6.459062,-2.6425 -2.084063,-0.98156 -4.010625,-2.285 -6.165,-2.93562 5.025312,-3.11406 9.795625,-5.44875 11.743125,-11.74344 1.69375,-5.47437 1.468125,-13.40719 1.468125,-21.13812 0,-7.63375 0.03406,-16.50875 0.03406,-23.24875 l 13.177189,-0.003 z"
         inkscape:connector-curvature="0" />
    </g>
    <g
       id="g4021"
       transform="matrix(0.12991718,0,0,0.12991718,247.23745,858.43995)">
      <path
         id="path3997"
         d="m 510.167,144.833 c -39.75,-24.75 -77.25,-34.5 -114.75,-59.25 -23.25,-15.75 -55.5,-53.25 -82.5,-85.5 -5.25,51.75 -21,72.75 -39,87.75 -38.25,30 -62.25,39 -95.25,57 -27.75,14.25 -178.5,104.25 -178.5,297.75 0,193.5 162.75,336 343.5,336 180.75,0 337.5,-131.25 337.5,-330 0,-198.75 -147,-288.75 -171,-303.75 z"
         style="fill:#00598e"
         inkscape:connector-curvature="0" />
      <path
         id="path3999"
         d="m 449.25,610.5 c 12,0 24.75,0.75 33.75,6.75 9,6 14.25,19.5 17.25,27 3,7.5 0,12 -6,15 -5.25,3 -6,1.5 -11.25,-8.25 -5.25,-9.75 -9.75,-19.5 -36,-19.5 -26.25,0 -34.5,9 -47.25,19.5 -12.75,10.5 -17.25,14.25 -21.75,8.25 -4.5,-6 -3,-12 5.25,-19.5 8.25,-7.5 21.75,-19.5 34.5,-24.75 12.75,-5.25 19.5,-4.5 31.5,-4.5 l 0,0 z"
         style="fill:#ffffff"
         inkscape:connector-curvature="0" />
      <path
         id="path4001"
         d="m 324.75,696 c 15,12 37.5,21.75 85.5,21.75 48,0 81.75,-13.5 96.75,-24.75 6.75,-5.25 9.75,-0.75 10.5,2.25 0.75,3 2.25,7.5 -3,12.75 -3.75,3.75 -38.25,27.75 -78.75,31.5 -40.5,3.75 -95.25,6 -128.25,-24 -5.25,-5.25 -3.75,-12.75 0,-15.75 3.75,-3 6.75,-5.25 11.25,-5.25 4.5,0 3.75,0 6,1.5 l 0,0 z"
         style="fill:#ffffff"
         inkscape:connector-curvature="0" />
      <path
         id="path4003"
         d="m 141,639 c 57,-0.75 67.5,-10.5 117.75,-33 271.5,-121.5 321.75,-232.5 331.5,-258 9.75,-25.5 24,-66.75 9,-112.5 -2.896,-8.832 -5.006,-15.924 -6.53,-21.63 C 556.641,173.527 520.822,151.513 510,144.75 471,120 432.75,110.25 395.25,85.5 372,70.5 339.75,32.25 312.75,0 c -5.25,51.75 -20.25,73.5 -39,87.75 -38.25,30 -62.25,39 -95.25,57 C 150.75,159.75 0,249 0,442.5 0,504.28 16.593,560.861 45.063,609.266 L 52.5,609 c 15.75,14.25 40.5,30.75 88.5,30 z"
         style="fill:#0073ba"
         inkscape:connector-curvature="0" />
      <path
         id="path4005"
         d="M 510,144.75 C 471,120 432.75,110.25 395.25,85.5 372,70.5 339.75,32.25 312.75,0 c -5.25,51.75 -20.25,73.5 -39,87.75 -38.25,30 -62.25,39 -95.25,57 C 150.75,159.75 0,249 0,442.5 0,504.28 16.593,560.861 45.063,609.266 105.763,712.467 220.46,778.5 343.5,778.5 524.25,778.5 681,647.25 681,448.5 681,339.354 636.668,263.012 592.72,213.87 556.641,173.527 520.82,151.513 510,144.75 z m 91.164,87.797 c 49.242,61.564 74.211,134.221 74.211,215.953 0,47.428 -9.033,92.23 -26.849,133.165 -16.9,38.831 -41.236,73.233 -72.333,102.254 -61.47,57.364 -144.107,88.956 -232.693,88.956 -43.826,0 -86.832,-8.371 -127.824,-24.882 C 175.413,731.776 139.129,708.555 107.833,678.973 41.923,616.678 5.625,532.696 5.625,442.5 c 0,-80.336 26.076,-151.72 77.503,-212.167 39.289,-46.18 81.655,-71.774 98.047,-80.634 7.958,-4.341 15.423,-8.172 22.643,-11.877 22.63,-11.615 44.005,-22.586 73.404,-45.645 15.677,-11.914 32.377,-30.785 39.489,-78.702 24.774,29.466 53.522,62.579 75.49,76.752 19.5,12.87 39.501,21.888 58.844,30.61 18.298,8.25 37.219,16.781 55.942,28.663 0.031,0.021 0.702,0.438 0.702,0.438 54.732,34.172 83.892,70.628 93.475,82.609 z"
         style="fill:#004975"
         inkscape:connector-curvature="0" />
      <path
         id="path4007"
         d="m 316.5,15 c 10.5,30.75 9,46.5 9,53.25 0,6.75 -3.75,24.75 -15.75,33.75 -5.25,3.75 -6.75,6.75 -6.75,7.5 0,3 6.75,5.25 6.75,12 0,8.25 -3.75,24.75 -43.5,64.5 -39.75,39.75 -96.75,75 -141,96.75 C 81,304.5 60,303 54,292.5 48,282 56.25,258.75 84,228 111.75,197.25 199.5,153 199.5,153 L 309,76.5 315,47.25"
         style="fill:#93c5e4"
         inkscape:connector-curvature="0" />
      <path
         id="path4009"
         d="m 316.5,14.25 c -6.75,49.5 -21.75,64.5 -42,80.25 -33.75,25.5 -66.75,41.25 -74.25,45 -19.5,9.75 -90,48.75 -126.75,105 -11.25,17.25 0,24 2.25,25.5 2.25,1.5 27.75,4.5 82.5,-28.5 54.75,-33 78.75,-52.5 109.5,-84.75 16.5,-17.25 18.75,-27 18.75,-31.5 0,-5.25 -3.75,-7.5 -9.75,-9 -3,-0.75 -3.75,-2.25 0,-4.5 C 280.5,109.5 296.25,102 300,99 c 3.75,-3 21.75,-15 22.5,-34.5 0.75,-19.5 -0.75,-33 -6,-50.25 l 0,0 z"
         style="fill:#ffffff"
         inkscape:connector-curvature="0" />
      <path
         id="path4011"
         d="m 147.75,559.5 c 0.75,-58.5 55.5,-113.25 124.5,-114 87.75,-0.75 148.5,87 192.75,86.25 37.5,-0.75 109.5,-74.25 144.75,-74.25 37.5,0 48,39 48,62.25 0,23.25 -7.5,65.25 -25.5,91.5 -18,26.25 -29.25,36 -50.25,34.5 C 555,643.5 501,559.5 466.5,558 c -43.5,-1.5 -138,90.75 -212.25,90.75 -45,0 -58.5,-6.75 -73.5,-16.5 -22.5,-15.75 -33.75,-39.75 -33,-72.75 l 0,0 z"
         style="fill:#ffffff"
         inkscape:connector-curvature="0" />
      <path
         id="path4013"
         d="m 599.25,235.5 c 15,45.75 0.75,87 -9,112.5 -9.75,25.5 -60,136.5 -331.5,258 C 208.5,628.5 198,638.25 141,639 93,639.75 68.25,623.25 52.5,609 l -7.437,0.266 C 105.763,712.467 220.46,778.5 343.5,778.5 524.25,778.5 681,647.25 681,448.5 681,339.354 636.668,263.012 592.72,213.87 c 1.524,5.706 3.634,12.798 6.53,21.63 z"
         style="fill:none"
         inkscape:connector-curvature="0" />
    </g>
    <g
       id="g4127"
       transform="matrix(0.39473196,0,0,0.39473196,-28.823888,552.87149)">
      <polygon
         id="polygon4101"
         points="74.633,100.62 437.367,100.62 404.321,470.819 255.778,512 107.644,470.877 "
         style="fill:#e44d26" />
      <polygon
         id="polygon4103"
         points="404.27,130.894 256,130.894 256,480.523 376.03,447.246 "
         style="fill:#f16529" />
      <polygon
         id="polygon4105"
         points="142.132,176.305 143.219,188.488 154.38,313.627 256,313.627 256,268.217 195.91,268.217 191.76,221.716 256,221.716 256,176.305 255.843,176.305 "
         style="fill:#ebebeb" />
      <polygon
         id="polygon4107"
         points="162.771,407.634 255.791,433.457 256,433.399 256,386.153 255.801,386.206 205.227,372.55 201.994,336.333 177.419,336.333 156.409,336.333 "
         style="fill:#ebebeb" />
      <path
         id="path4109"
         d="m 108.382,0 h 23.077 v 22.8 h 21.11 V 0 h 23.078 V 69.044 H 152.57 v -23.12 h -21.11 v 23.12 H 108.383 V 0 z"
         inkscape:connector-curvature="0" />
      <path
         id="path4111"
         d="M 205.994,22.896 H 185.678 V 0 h 63.72 V 22.896 H 229.073 V 69.044 H 205.995 V 22.896 z"
         inkscape:connector-curvature="0" />
      <path
         id="path4113"
         d="m 259.511,0 h 24.063 L 298.376,24.26 313.163,0 h 24.072 V 69.044 H 314.253 V 34.822 l -15.877,24.549 h -0.397 L 282.091,34.822 v 34.222 h -22.58 V 0 z"
         inkscape:connector-curvature="0" />
      <path
         id="path4115"
         d="m 348.72,0 h 23.084 v 46.222 h 32.453 V 69.044 H 348.72 V 0 z"
         inkscape:connector-curvature="0" />
      <polygon
         id="polygon4117"
         points="348.937,407.634 349.62,399.962 360.291,280.411 361.399,268.217 349.162,268.217 255.843,268.217 255.843,313.627 311.761,313.627 306.49,372.521 255.843,386.191 255.843,433.435 "
         style="fill:#ffffff" />
      <polygon
         id="polygon4119"
         points="365.531,221.716 366.442,211.509 368.511,188.488 369.597,176.305 255.843,176.305 255.843,204.509 255.843,221.605 255.843,221.716 365.385,221.716 365.385,221.716 "
         style="fill:#ffffff" />
    </g>
    <g
       transform="matrix(1.6235221,0,0,1.6235221,-184.14436,-159.76161)"
       id="g56795">
      <g
         id="g56785" />
      <g
         id="g56770">
        <path
           id="path1883"
           d="m 353.5105,514.6615 -1.1133,-1.1094 c -3.4531,-3.4531 -4.5235,-8.3945 -3.2149,-12.7734 -3.4531,-0.7773 -6.0351,-3.8672 -6.0351,-7.5625 0,-4.2773 3.4687,-7.7539 7.75,-7.7539 3.8515,0 7.0508,2.8125 7.6484,6.4961 4.1836,-0.9766 8.7617,0.1562 12.0196,3.4219 l 0.4414,0.4414 -5.7227,5.7187 -0.4414,-0.4414 c -1.8555,-1.8515 -4.8633,-1.8515 -6.7227,0 -1.8593,1.8594 -1.8554,4.8828 -0.008,6.7305 l 1.1172,1.1133 5.7227,5.7148 6.0508,6.0469 -5.7149,5.7187 -6.0586,-6.0507 -5.7187,-5.7188"
           style="fill:#5ba528;fill-opacity:1;fill-rule:evenodd;stroke:none"
           inkscape:connector-curvature="0" />
        <path
           id="path1885"
           d="m 359.9089,508.267 6.0547,-6.0508 5.7227,-5.7148 1.1132,-1.1094 c 3.4414,-3.4414 8.3516,-4.5234 12.711,-3.2422 0.5195,-3.7734 3.7617,-6.6836 7.6797,-6.6836 4.2812,0 7.7539,3.4688 7.7539,7.7539 0,3.9336 -2.9297,7.1836 -6.7305,7.6836 1.2461,4.3438 0.1601,9.2149 -3.2578,12.6406 l -0.4414,0.4453 -5.7149,-5.7187 0.4375,-0.4414 c 1.8555,-1.8555 1.8555,-4.8672 0,-6.7227 -1.8476,-1.8476 -4.8515,-1.8515 -6.7148,0.008 l -1.1133,1.1133 -5.7226,5.7188 -6.0508,6.0429 -5.7227,-5.7148"
           style="fill:#fc8d30;fill-opacity:1;fill-rule:evenodd;stroke:none"
           inkscape:connector-curvature="0" />
        <path
           id="path1887"
           d="m 385.6745,537.1342 c -4.3984,1.3515 -9.3828,0.2851 -12.8672,-3.1914 l -0.4375,-0.4375 5.7149,-5.7227 0.4375,0.4375 c 1.8555,1.8555 4.8672,1.8555 6.7226,0 1.8477,-1.8515 1.8516,-4.8515 -0.008,-6.7187 l -1.1172,-1.1172 -5.7148,-5.7227 -6.0391,-6.0429 5.7227,-5.7149 6.0351,6.043 5.7149,5.7187 1.1211,1.125 c 3.2851,3.2852 4.4258,7.9141 3.3984,12.125 3.7656,0.5274 6.6602,3.7656 6.6602,7.6758 0,4.2813 -3.4727,7.75 -7.75,7.75 -3.7539,0 -6.8828,-2.6602 -7.5977,-6.2031"
           style="fill:#e72524;fill-opacity:1;fill-rule:evenodd;stroke:none"
           inkscape:connector-curvature="0" />
        <path
           id="path1889"
           d="m 383.4441,521.0639 -6.0352,6.0429 -5.7148,5.7227 -1.1211,1.1172 c -3.3008,3.3047 -7.961,4.4258 -12.1875,3.3789 -0.7852,3.4414 -3.8711,6.0117 -7.5547,6.0117 -4.2813,0 -7.7539,-3.4687 -7.7539,-7.75 0,-3.6641 2.5429,-6.7383 5.9609,-7.5469 -1.0781,-4.2461 0.0352,-8.9414 3.3633,-12.2656 l 0.4375,-0.4336 5.7227,5.7148 -0.4415,0.4376 c -1.8554,1.8554 -1.8515,4.8632 0,6.7226 1.8594,1.8594 4.8789,1.8555 6.7305,0.008 l 1.1172,-1.1172 5.7148,-5.7187 6.0391,-6.0469 5.7149,5.7188"
           style="fill:#0e6dab;fill-opacity:1;fill-rule:evenodd;stroke:none"
           inkscape:connector-curvature="0" />
        <path
           transform="matrix(1.017544,0,0,1,-5.01535,0.546998)"
           d="m 352.1299,532.44067 c 0,1.58602 -1.7449,2.87174 -3.89736,2.87174 -2.15245,0 -3.89736,-1.28572 -3.89736,-2.87174 0,-1.58601 1.74491,-2.87174 3.89736,-2.87174 2.15246,0 3.89736,1.28573 3.89736,2.87174 z"
           sodipodi:ry="2.8717391"
           sodipodi:rx="3.8973601"
           sodipodi:cy="532.44067"
           sodipodi:cx="348.23254"
           id="path48545"
           style="fill:url(#linearGradient56820);fill-opacity:1;stroke:none"
           sodipodi:type="arc" />
        <path
           transform="matrix(1.017544,0,0,1,40.38543,0.546987)"
           d="m 352.1299,532.44067 c 0,1.58602 -1.7449,2.87174 -3.89736,2.87174 -2.15245,0 -3.89736,-1.28572 -3.89736,-2.87174 0,-1.58601 1.74491,-2.87174 3.89736,-2.87174 2.15246,0 3.89736,1.28573 3.89736,2.87174 z"
           sodipodi:ry="2.8717391"
           sodipodi:rx="3.8973601"
           sodipodi:cy="532.44067"
           sodipodi:cx="348.23254"
           id="path49444"
           style="fill:url(#linearGradient56822);fill-opacity:1;stroke:none"
           sodipodi:type="arc" />
        <path
           transform="matrix(1.350877,0,0,1.261905,-119.7254,-181.3625)"
           d="m 352.1299,532.44067 c 0,1.58602 -1.7449,2.87174 -3.89736,2.87174 -2.15245,0 -3.89736,-1.28572 -3.89736,-2.87174 0,-1.58601 1.74491,-2.87174 3.89736,-2.87174 2.15246,0 3.89736,1.28573 3.89736,2.87174 z"
           sodipodi:ry="2.8717391"
           sodipodi:rx="3.8973601"
           sodipodi:cy="532.44067"
           sodipodi:cx="348.23254"
           id="path50345"
           style="fill:url(#linearGradient56824);fill-opacity:1;stroke:none"
           sodipodi:type="arc" />
        <path
           inkscape:transform-center-x="-0.54699792"
           transform="matrix(1.350877,0,0,1.261905,-77.12784,-181.431)"
           d="m 352.1299,532.44067 c 0,1.58602 -1.7449,2.87174 -3.89736,2.87174 -2.15245,0 -3.89736,-1.28572 -3.89736,-2.87174 0,-1.58601 1.74491,-2.87174 3.89736,-2.87174 2.15246,0 3.89736,1.28573 3.89736,2.87174 z"
           sodipodi:ry="2.8717391"
           sodipodi:rx="3.8973601"
           sodipodi:cy="532.44067"
           sodipodi:cx="348.23254"
           id="path50347"
           style="fill:url(#linearGradient56826);fill-opacity:1;stroke:none"
           sodipodi:type="arc" />
        <path
           id="path51246"
           d="m 381.46875,492.75 c -2.7934,0.12288 -5.54686,1.39061 -7.6875,3.53125 l -12,11.96875 1.6875,1.71875 12,-12 c 3.92609,-3.71323 4.7257,-4.7082 9.78125,-4.75 -1.22909,-0.3612 -2.51152,-0.5246 -3.78125,-0.46875 z"
           style="fill:url(#linearGradient56828);fill-opacity:1;fill-rule:evenodd;stroke:none"
           sodipodi:nodetypes="ccccccc"
           inkscape:connector-curvature="0" />
        <path
           style="fill:url(#linearGradient56830);fill-opacity:1;fill-rule:evenodd;stroke:none"
           d="m 363.71494,532.06795 c 1.58569,-0.0479 3.17288,-0.70264 4.34375,-1.875 7.37301,-7.36902 7.5,-7.5 11.5,-11.5 l -1.6875,-1.6875 -10.90625,10.875 -1.09375,1.125 c -1.16971,1.16719 -2.70818,1.75105 -4.25,1.75 -0.7709,-5.3e-4 -1.55811,-0.1461 -2.28125,-0.4375 1.18818,1.247 2.78931,1.79786 4.375,1.75 z"
           id="path55775"
           sodipodi:nodetypes="ccccccscc"
           inkscape:connector-curvature="0" />
        <path
           sodipodi:nodetypes="ccccccc"
           style="fill:url(#linearGradient56832);fill-opacity:1;fill-rule:evenodd;stroke:none"
           d="m 393.6102,524.33275 c -0.12288,-2.7934 -1.39061,-5.54686 -3.53125,-7.6875 l -11.96875,-12 -1.71875,1.6875 12,12 c 3.71323,3.92609 4.7082,4.7257 4.75,9.78125 0.3612,-1.22909 0.5246,-2.51152 0.46875,-3.78125 z"
           id="path55783"
           inkscape:connector-curvature="0" />
        <path
           id="path55791"
           d="m 354.54317,506.57894 c 0.0479,1.58569 0.70264,3.17288 1.875,4.34375 7.36902,7.37301 7.5,7.5 11.5,11.5 l 1.6875,-1.6875 -10.875,-10.90625 -1.125,-1.09375 c -1.16719,-1.16971 -1.75105,-2.70818 -1.75,-4.25 5.3e-4,-0.7709 0.1461,-1.55811 0.4375,-2.28125 -1.247,1.18818 -1.79786,2.78931 -1.75,4.375 z"
           style="fill:url(#linearGradient56834);fill-opacity:1;fill-rule:evenodd;stroke:none"
           inkscape:connector-curvature="0" />
        <path
           id="path55785"
           d="m 358.63692,493.26644 c 4.28197,0.11405 6.71517,0.91078 9.6875,3.75 l 1.21875,-1.21875 c -3.06312,-2.73348 -7.18358,-3.59917 -10.90625,-2.53125 z"
           style="fill:url(#linearGradient56836);fill-opacity:1;fill-rule:evenodd;stroke:none"
           inkscape:connector-curvature="0" />
      </g>
    </g>
    <g
       id="g4576"
       transform="matrix(0.39591229,0,0,0.39591229,123.68105,890.93594)">
      <path
         style="fill:#131b28;fill-rule:nonzero"
         inkscape:connector-curvature="0"
         id="path3165"
         d="m 259.74098,282.61715 0.001,-0.005 c 0,0 -3.352,11.88 -3.352,11.88 0,0 3.3508,-11.875 3.3508,-11.875 z" />
      <path
         style="fill:#131b28;fill-rule:nonzero"
         inkscape:connector-curvature="0"
         id="path3167"
         d="m 276.98098,308.40815 c 0,0 -3.6938,-0.022 -3.6938,-0.022 0,0 3.6938,0.022 3.6938,0.022 z" />
      <path
         style="fill:#131b28;fill-rule:nonzero"
         inkscape:connector-curvature="0"
         id="path3169"
         d="m 276.03098,326.14915 h 0.004 c 0,0 -22.131,0.0806 -22.131,0.0806 0,0 22.128,-0.0806 22.128,-0.0806 z" />
      <path
         style="fill:#131b28;fill-rule:nonzero"
         inkscape:connector-curvature="0"
         id="path3171"
         d="m 280.67098,308.43015 c 0,0 -3.6951,-0.022 -3.6951,-0.022 0,0 3.6951,0.022 3.6951,0.022 z" />
      <path
         style="fill:#131b28;fill-rule:nonzero"
         inkscape:connector-curvature="0"
         id="path3173"
         d="m 277.97098,324.64115 c 0,0 3.855,-14.702 3.855,-14.702 0,0 -3.855,14.705 -3.855,14.705 v -0.002 z" />
      <path
         style="fill:#131b28;fill-rule:nonzero"
         inkscape:connector-curvature="0"
         id="path3175"
         d="m 359.45098,256.93615 c 0,0 -7.1814,33.76 -7.1814,33.76 0,0 7.1814,-33.76 7.1814,-33.76 z" />
      <path
         style="fill:#131b28;fill-rule:nonzero"
         inkscape:connector-curvature="0"
         id="path3177"
         d="m 340.99098,256.93615 c 0,0 -5.4517,25.22 -5.4517,25.22 0,0 5.4517,-25.222 5.4517,-25.222 v 0.002 z" />
      <path
         style="fill:#131b28;fill-rule:nonzero"
         inkscape:connector-curvature="0"
         id="path3179"
         d="m 358.22098,255.41715 h -15.356 c -0.85205,0 -1.698,0.68359 -1.8799,1.5161 0,0 -5.4516,25.222 -5.4516,25.222 0,0 -5.4517,25.222 -5.4517,25.222 -0.18066,0.83251 -1.0254,1.5137 -1.8774,1.5137 h -9.3176 -1.5515 c -10.753,0 -9.5093,-7.4365 -7.3071,-17.627 0.022,-0.1025 0.044,-0.20263 0.0659,-0.30761 0,0 0.24169,-1.2842 0.24169,-1.2842 0.0146,-0.083 0.0317,-0.16603 0.0451,-0.2417 0,0 0.49072,-2.6148 0.49072,-2.6148 0,0 0.52612,-2.8027 0.52612,-2.8027 0.15992,-0.84473 0.40283,-2.0801 0.56153,-2.8564 0,0 2.478,-12.109 2.478,-12.109 0,0 2.4805,-12.109 2.4805,-12.109 0.1709,-0.83496 -0.38819,-1.521 -1.2402,-1.521 h -15.762 c -0.85206,0 -1.6956,0.68604 -1.8701,1.5186 0,0 -3.3887,16.079 -3.3887,16.079 0,0 -3.3887,16.077 -3.3887,16.077 -0.003,0.007 -0.004,0.0171 -0.005,0.0244 0,0 -0.31494,1.4942 -0.31494,1.4942 -3.9038,17.822 -2.8686,34.817 18.347,35.349 0.3467,0.01 0.61525,0.0125 0.61525,0.0125 h 33.302 c 0.85206,0 1.6956,-0.6836 1.8738,-1.5186 0,0 7.1814,-33.757 7.1814,-33.757 0,0 7.1814,-33.76 7.1814,-33.76 0.17701,-0.83497 -0.37598,-1.5186 -1.228,-1.5186 z" />
      <path
         style="fill:#131b28;fill-rule:nonzero"
         inkscape:connector-curvature="0"
         id="path3181"
         d="m 419.48098,309.06715 c 0.85327,0 1.4111,0.6836 1.2402,1.5186 0,0 -1.4917,7.2876 -1.4917,7.2876" />
      <path
         style="fill:#131b28;fill-rule:nonzero"
         inkscape:connector-curvature="0"
         id="path3183"
         d="m 417.74098,325.16515 c 0,0 1.4905,-7.2925 1.4905,-7.2925 0,0 -1.4917,7.2949 -1.4917,7.2949 0,-0.002 9.9e-4,-0.002 9.9e-4,-0.002 z" />
      <path
         style="fill:#131b28;fill-rule:nonzero"
         inkscape:connector-curvature="0"
         id="path3185"
         d="m 415.87098,326.69915 c 0.002,0 0.005,-0.002 0.007,-0.002 -4.519,0.0366 -18.099,0.13916 -28.306,0.13916 12.422,0 28.298,-0.13672 28.298,-0.13672 z" />
      <path
         style="fill:#131b28;fill-rule:nonzero"
         inkscape:connector-curvature="0"
         id="path3187"
         d="m 378.41098,299.68015 c -0.0125,-0.79835 0.896,-2.1729 1.7493,-2.1729 0,0 -1.9177,-0.0317 -1.9177,-0.0317 -0.86426,8.6914 0.16845,2.2046 0.16845,2.2046 z" />
      <path
         style="fill:#131b28;fill-rule:nonzero"
         inkscape:connector-curvature="0"
         id="path3189"
         d="m 388.97098,326.83315 c -0.0976,0 -0.19775,0 -0.29542,0.002 0.0976,-0.002 0.19777,-0.002 0.29542,-0.002 z" />
      <path
         style="fill:#131b28;fill-rule:nonzero"
         inkscape:connector-curvature="0"
         id="path3191"
         d="m 419.48098,309.06715 c 0.85327,0 1.4111,0.6836 1.2402,1.5186 0,0 -1.4917,7.2876 -1.4917,7.2876 0,0 -0.24293,1.189 -0.24293,1.189" />
      <path
         style="fill:#131b28;fill-rule:nonzero"
         inkscape:connector-curvature="0"
         id="path3193"
         d="m 396.24098,326.81615 h -0.0623 0.0623 z" />
      <path
         style="fill:#131b28;fill-rule:nonzero"
         inkscape:connector-curvature="0"
         id="path3195"
         d="m 392.47098,326.82815 h -0.21852 0.21852 z" />
      <path
         style="fill:#131b28;fill-rule:nonzero"
         inkscape:connector-curvature="0"
         id="path3197"
         d="m 391.32098,326.83115 c -0.12201,0 -0.2417,0 -0.36134,0.002 0.11963,-0.002 0.23927,-0.002 0.36134,-0.002 z" />
      <path
         style="fill:#131b28;fill-rule:nonzero"
         inkscape:connector-curvature="0"
         id="path3199"
         d="m 390.15098,326.83315 h -0.31737 0.31737 z" />
      <path
         style="fill:#131b28;fill-rule:nonzero"
         inkscape:connector-curvature="0"
         id="path3201"
         d="m 392.25098,326.82815 c -0.31127,0 -0.62255,0.002 -0.93016,0.002 0.30761,0 0.61889,-0.002 0.93016,-0.002 z" />
      <path
         style="fill:#131b28;fill-rule:nonzero"
         inkscape:connector-curvature="0"
         id="path3203"
         d="m 396.18098,326.81615 c -1.2427,0.005 -2.4829,0.01 -3.7048,0.0125 1.2219,-0.002 2.4634,-0.007 3.7048,-0.0125 z" />
      <path
         style="fill:#131b28;fill-rule:nonzero"
         inkscape:connector-curvature="0"
         id="path3205"
         d="m 415.88098,326.69615 h 10e-4 c -3.3118,0.0269 -11.49,0.0879 -19.646,0.11963 8.1518,-0.0292 16.332,-0.0927 19.645,-0.11963 z" />
      <path
         style="fill:#131b28;fill-rule:nonzero"
         inkscape:connector-curvature="0"
         id="path3207"
         d="m 417.74098,325.16815 c 0,0 1.2488,-6.106 1.2488,-6.106 0,0 -1.25,6.1108 -1.25,6.1108 0,-0.002 10e-4,-0.002 10e-4,-0.005 z" />
      <path
         style="fill:#131b28;fill-rule:nonzero"
         inkscape:connector-curvature="0"
         id="path3209"
         d="m 390.96098,326.83315 h -0.81054 0.81054 z" />
      <path
         style="fill:#131b28;fill-rule:nonzero"
         inkscape:connector-curvature="0"
         id="path3211"
         d="m 388.67098,326.83515 h -1.0962 1.0962 z" />
      <path
         style="fill:#131b28;fill-rule:nonzero"
         inkscape:connector-curvature="0"
         id="path3213"
         d="m 389.83098,326.83315 h -0.86426 0.86426 z" />
      <path
         style="fill:#131b28;fill-rule:nonzero"
         inkscape:connector-curvature="0"
         id="path3215"
         d="m 165.20098,299.86315 c 0,0 2.3852,-10.574 2.3852,-10.574 0,0 -2.727,12.087 -2.727,12.087 0,0 -2.6172,12.312 -2.6172,12.312 0,0 2.2937,-10.793 2.2937,-10.793 0.177,-0.83497 0.4773,-2.1997 0.66529,-3.0322 z" />
      <path
         style="fill:#131b28;fill-rule:nonzero"
         inkscape:connector-curvature="0"
         id="path3217"
         d="m 193.75098,255.23915 h -16.864 c -0.85326,0 -1.7041,0.68115 -1.8945,1.5112 0,0 -1.5991,7.0581 -1.5991,7.0581 0,0 -1.5991,7.0606 -1.5991,7.0606 -0.18799,0.83008 0.35523,1.5112 1.2085,1.5112 h 16.995 c 0.85205,0 1.6992,-0.68115 1.8823,-1.5137 0,0 1.5454,-7.0581 1.5454,-7.0581 0,0 1.5454,-7.0532 1.5454,-7.0532 v -0.002 c 0.18189,-0.83253 -0.36621,-1.5137 -1.2195,-1.5137 z" />
      <path
         style="fill:#131b28;fill-rule:nonzero"
         inkscape:connector-curvature="0"
         id="path3219"
         d="m 190.08098,278.71815 v -0.002 c 0,0 -4.9463,22.883 -4.9463,22.883 0,0 4.9463,-22.881 4.9463,-22.881 z" />
      <path
         style="fill:#131b28;fill-rule:nonzero"
         inkscape:connector-curvature="0"
         id="path3221"
         d="m 141.09098,354.53615 c 0,0 8.501,0.10988 13.905,0.10988 -4.1052,0 -10.885,-0.0756 -13.912,-0.11225 0.003,0 0.005,0.002 0.008,0.002 z" />
      <path
         style="fill:#131b28;fill-rule:nonzero"
         inkscape:connector-curvature="0"
         id="path3223"
         d="m 169.97098,278.71515 c 0,0 -2.3877,10.574 -2.3877,10.574 0,0 2.3877,-10.574 2.3877,-10.574 z" />
      <path
         style="fill:#131b28;fill-rule:nonzero"
         inkscape:connector-curvature="0"
         id="path3225"
         d="m 188.86098,277.20215 h -16.997 c -0.85205,0 -1.7041,0.68117 -1.8921,1.5137 0,0 -2.3877,10.574 -2.3877,10.574 0,0 -2.3852,10.574 -2.3852,10.574 -0.18799,0.83253 -0.48829,2.1973 -0.66529,3.0322 0,0 -2.2937,10.793 -2.2937,10.793 0,0 -2.2925,10.793 -2.2925,10.793 -0.17822,0.83252 -0.54443,2.1777 -0.81787,2.9858 0,0 -3.175,9.4482 -8.5132,9.3408 -0.22705,-0.005 -0.448,-0.007 -0.6665,-0.0125 -2.5867,-0.0489 -4.6191,-0.0855 -4.6191,-0.0855 h -0.004 c -0.85083,-0.0125 -1.7066,0.65185 -1.9055,1.4795 0,0 -1.7627,7.4097 -1.7627,7.4097 0,0 -1.7603,7.4072 -1.7603,7.4072 -0.19775,0.82762 0.33692,1.5112 1.1841,1.5259 3.0274,0.0366 9.8071,0.11225 13.912,0.11225 13.334,0 20.363,-7.3877 24.869,-28.647 0,0 5.2734,-24.399 5.2734,-24.399 0,0 4.9463,-22.883 4.9463,-22.883 0.17945,-0.83251 -0.3711,-1.5137 -1.2232,-1.5137 z" />
      <path
         style="fill:#131b28;fill-rule:nonzero"
         inkscape:connector-curvature="0"
         id="path3227"
         d="m 430.31098,325.97115 c -0.85205,0 -1.405,-0.6836 -1.2256,-1.5186 0,0 12.786,-59.89 12.786,-59.89" />
      <path
         style="fill:#131b28;fill-rule:nonzero"
         inkscape:connector-curvature="0"
         id="path3229"
         d="m 448.08098,324.45015 c 0,0 5.1709,-25.562 5.1709,-25.562 0,0 -5.1709,25.562 -5.1709,25.562 z" />
      <path
         style="fill:#131b28;fill-rule:nonzero"
         inkscape:connector-curvature="0"
         id="path3231"
         d="m 429.27098,325.21215 c -0.10375,-0.41749 -0.0428,-1.4404 0.13793,-2.2754 0,0 6.0681,-28.428 6.0681,-28.428 0,0 -6.3928,29.944 -6.3928,29.944 -0.17944,0.83495 0.37354,1.5186 1.2256,1.5186 h 1.5528 c -0.85328,0 -2.489,-0.3418 -2.5916,-0.75927 z" />
      <path
         style="fill:#131b28;fill-rule:nonzero"
         inkscape:connector-curvature="0"
         id="path3233"
         d="m 447.07098,325.62915 c -0.46388,0.18799 -1.543,0.3418 -2.3962,0.3418 h 1.5527 c 0.85205,0 1.6894,-0.6836 1.8579,-1.521 0,0 0.30761,-1.5186 0.30761,-1.5186 -0.16967,0.83496 -0.85692,2.5098 -1.322,2.6978 z" />
      <path
         style="fill:#131b28;fill-rule:nonzero"
         inkscape:connector-curvature="0"
         id="path3235"
         d="m 450.67098,311.66915 c 0,0 2.2827,-11.282 2.2827,-11.282 -0.001,0.007 -0.002,0.0171 -0.004,0.022 0,0 -2.279,11.26 -2.279,11.26 z" />
      <path
         style="fill:#131b28;fill-rule:nonzero"
         inkscape:connector-curvature="0"
         id="path3237"
         d="m 501.12098,268.57415 c 0,0 0.70434,2.9102 0.70434,2.9102 0.1941,0.83251 -0.34424,1.5088 -1.1951,1.5112" />
      <path
         style="fill:#131b28;fill-rule:nonzero"
         inkscape:connector-curvature="0"
         id="path3239"
         d="m 448.39098,322.93215 c 0,0 2.2766,-11.262 2.2766,-11.262 0,0 -2.2766,11.262 -2.2766,11.262 z" />
      <path
         style="fill:#131b28;fill-rule:nonzero"
         inkscape:connector-curvature="0"
         id="path3241"
         d="m 500.42098,265.59315 c 0,0 0.69703,2.981 0.69703,2.981 0,0 -0.69703,-2.981 -0.69703,-2.981 z" />
      <path
         style="fill:#131b28;fill-rule:nonzero"
         inkscape:connector-curvature="0"
         id="path3243"
         d="m 452.95098,300.38815 c 0.16969,-0.83496 0.45045,-2.1875 0.62746,-3.0151 0,0 2.4377,-11.421 2.4377,-11.421 0,0 -2.7612,12.937 -2.7612,12.937 0,0 -0.30397,1.499 -0.30397,1.499 z" />
      <path
         style="fill:#131b28;fill-rule:nonzero"
         inkscape:connector-curvature="0"
         id="path3245"
         d="m 442.08098,263.58115 c -0.16967,0.80567 -0.38696,1.8237 -0.53101,2.4976 0,0 -6.0681,28.43 -6.0681,28.43 0,0 6.3928,-29.946 6.3928,-29.946 0,0 0.2063,-0.98145 0.2063,-0.98145 z" />
      <path
         style="fill:#131b28;fill-rule:nonzero"
         inkscape:connector-curvature="0"
         id="path3247"
         d="m 501.82098,271.48415 c 0,0 -0.70434,-2.9102 -0.70434,-2.9102 0,0 -0.69703,-2.981 -0.69703,-2.981 0,0 -0.35278,-1.5088 -0.35278,-1.5088 -1.3806,-5.3638 -5.4334,-8.4595 -14.233,-8.4595 0,0 -13.7,-0.0146 -13.7,-0.0146 0,0 -12.617,-0.0146 -12.617,-0.0146 h -1.0828 -13.114 c -0.85205,0 -1.6956,0.68115 -1.8713,1.5161 h -0.001 c 0,0 -0.62743,2.9663 -0.62743,2.9663 0,0 -0.74096,3.5034 -0.74096,3.5034 0,0 -0.2063,0.98145 -0.2063,0.98145 0,0 -6.3928,29.946 -6.3928,29.946 0,0 -6.0681,28.428 -6.0681,28.428 -0.18065,0.83496 -0.24169,1.8579 -0.13792,2.2754 0.1025,0.41747 1.7383,0.75927 2.5915,0.75927 h 12.808 c 0.85327,0 1.9324,-0.15381 2.3962,-0.3418 0.46508,-0.18799 1.1523,-1.8628 1.322,-2.6978 0,0 2.2766,-11.262 2.2766,-11.262 0,0 2.279,-11.26 2.279,-11.26 10e-4,-0.005 0.002,-0.0146 0.004,-0.022 0,0 0.30396,-1.499 0.30396,-1.499 0,0 2.7612,-12.937 2.7612,-12.937 0,0 2.439,-11.426 2.439,-11.426 0.18068,-0.83007 1.0205,-1.5088 1.8713,-1.5112 0,0 40.3,-0.0195 40.3,-0.0195 0.85083,-0.002 1.3892,-0.67872 1.1951,-1.5112 z" />
      <path
         style="fill:#131b28;fill-rule:nonzero"
         inkscape:connector-curvature="0"
         id="path3249"
         d="m 553.70098,245.17055 c -0.85326,0.006 -2.2485,0.0113 -3.1018,0.0113 h -12.899 c -0.85328,0 -1.9458,0.57618 -2.4268,1.2805 0,0 -28.523,41.787 -28.523,41.787 -0.48218,0.70557 -1.0315,0.60059 -1.2207,-0.22949 0,0 -2.0984,-9.2065 -2.0984,-9.2065 -0.18921,-0.83252 -1.0437,-1.5112 -1.8958,-1.5112 h -18.337 c -0.85327,0 -1.3586,0.66895 -1.1255,1.4893 0,0 8.2166,28.784 8.2166,28.784 0.23437,0.82032 0.25147,2.168 0.0403,2.9932 0,0 -3.5815,13.931 -3.5815,13.931 -0.2124,0.82764 0.3125,1.5039 1.1658,1.5039 h 18.123 c 0.85205,0 1.7236,-0.67627 1.9348,-1.5039 0,0 3.5828,-13.931 3.5828,-13.931 0.21119,-0.82519 0.80445,-2.0605 1.3184,-2.7417 0,0 46.306,-61.459 46.306,-61.459 0.51393,-0.68115 0.2356,-1.2354 -0.61645,-1.2292 0,0 -4.8608,0.0317 -4.8608,0.0317 z" />
      <path
         style="fill:#131b28;fill-rule:nonzero"
         inkscape:connector-curvature="0"
         id="path3251"
         d="m 408.02098,281.22015 c 0,0 -0.001,-0.0171 -0.001,-0.0171 -0.10737,0.92528 -0.96069,1.604 -1.8128,1.604 h -23.248 c -0.80323,0 -1.2122,-0.54688 -1.0938,-1.2207 0.007,-0.0195 0.01,-0.0366 0.022,-0.0537 0,0 -0.008,0.002 -0.0146,0.007 0.005,-0.0269 0.005,-0.0512 0.0125,-0.0781 0,0 0.044,-0.16358 0.10625,-0.39552 2.2204,-5.9033 6.7432,-9.7778 15.243,-9.7778 9.5691,0 11.437,4.6753 10.787,9.9316 z m -6.8201,-26.834 c -29.841,0 -36.912,18.113 -40.879,36.394 -3.9673,18.633 -3.6255,36.055 27.253,36.055 h 1.0962 c 0.0976,-0.002 0.19777,-0.002 0.29542,-0.002 h 0.86426 0.31737 0.81055 c 0.11963,-0.002 0.23927,-0.002 0.36133,-0.002 0.30762,0 0.6189,-0.002 0.93017,-0.002 h 0.21852 c 1.2219,-0.002 2.4622,-0.008 3.7048,-0.0125 h 0.0623 c 8.1555,-0.0317 16.334,-0.0927 19.647,-0.11962 0.84717,-0.0125 1.676,-0.6958 1.8506,-1.5234 0,0 1.25,-6.1108 1.25,-6.1108 0,0 0.24293,-1.189 0.24293,-1.189 0,0 1.4917,-7.2876 1.4917,-7.2876 0.1709,-0.83496 -0.38696,-1.5186 -1.2402,-1.5186 h -27.761 c -11.041,0 -14.32,-2.9346 -13.112,-11.56 h 44.377 c 0,0 -0.004,0.005 -0.004,0.005 0.0113,0 0.0208,-0.005 0.0305,-0.005 0.70556,-0.0125 1.3574,-0.49804 1.6162,-1.145 0.0489,-0.1245 0.0904,-0.25391 0.10737,-0.38818 0,0 -0.005,0.005 -0.005,0.005 6.5894,-24.854 4.6997,-41.592 -23.528,-41.592 z" />
      <path
         style="fill:#131b28;fill-rule:nonzero"
         inkscape:connector-curvature="0"
         id="path3253"
         d="m 260.16098,281.12515 c 0,0 -0.41993,1.4868 -0.41993,1.4868 0,0.005 -10e-4,0.005 -10e-4,0.005 0,0 -3.3508,11.875 -3.3508,11.875 0,0 -3.3496,11.873 -3.3496,11.873 -0.23193,0.82031 -1.1182,1.4917 -1.9727,1.4917 h -17.736 c -13.453,0 -16.729,-10.522 -13.453,-26.042 3.2752,-15.874 9.6973,-25.742 22.938,-26.741 18.094,-1.3648 21.714,11.362 17.345,26.052 z m 12.163,25.818 c 0,0 8.3618,-20.303 10.261,-32.031 2.59,-15.699 -5.27,-38.466 -35.63,-38.466 -30.187,0 -43.295,21.737 -48.297,45.367 -5.0012,23.801 1.5515,44.675 31.567,44.504 0,0 23.679,-0.0879 23.679,-0.0879 0,0 22.131,-0.0806 22.131,-0.0806 0.85205,-0.007 1.7236,-0.6836 1.9409,-1.5064 0,0 3.855,-14.705 3.855,-14.705 0.21485,-0.8252 -0.30639,-1.5039 -1.1584,-1.5088 0,0 -3.6951,-0.022 -3.6951,-0.022 0,0 -3.6938,-0.022 -3.6938,-0.022 -0.7251,-0.005 -1.1401,-0.47364 -1.0522,-1.0962 0.0159,-0.11225 0.0415,-0.22705 0.0904,-0.34668 z" />
      <path
         style="fill:#131b28;fill-rule:nonzero"
         inkscape:connector-curvature="0"
         id="path3255"
         d="m 421.76098,293.35415 c 0,0.56153 -0.45532,1.0181 -1.0181,1.0181 -0.56152,0 -1.0181,-0.45654 -1.0181,-1.0181 0,-0.56152 0.45655,-1.0156 1.0181,-1.0156 0.56274,0 1.0181,0.4541 1.0181,1.0156 z" />
      <path
         style="fill:#0868ac;fill-rule:nonzero"
         inkscape:connector-curvature="0"
         id="path3257"
         d="m 41.819484,266.95515 c -8.335,11.98 -7.2974,27.566 -0.93018,40.295 0.15138,0.30518 0.31006,0.60546 0.46631,0.90576 0.10012,0.19043 0.19409,0.38574 0.29785,0.57373 0.05862,0.11225 0.1245,0.22216 0.18555,0.32959 0.10862,0.20263 0.21972,0.39551 0.33202,0.59326 0.19776,0.34912 0.4004,0.6958 0.60791,1.0425 0.11475,0.19042 0.22828,0.38085 0.34669,0.57128 0.22949,0.37109 0.46509,0.7373 0.70556,1.1035 0.10012,0.15625 0.19775,0.3125 0.30029,0.46386 0.33204,0.49561 0.67139,0.98877 1.0217,1.4746 0.0087,0.0125 0.01825,0.0269 0.02925,0.039 0.055,0.0781 0.116,0.15381 0.17212,0.23194 0.30274,0.41747 0.61524,0.83007 0.9314,1.2378 0.116,0.14892 0.23315,0.29785 0.35034,0.44677 0.28199,0.35401 0.56885,0.70558 0.8606,1.0571 0.10862,0.13184 0.2185,0.26366 0.32836,0.39306 0.39185,0.46143 0.79101,0.92041 1.1987,1.3696 0.0075,0.007 0.01713,0.0171 0.02437,0.0244 0.01713,0.0195 0.03175,0.0317 0.04637,0.0512 0.39795,0.43457 0.80566,0.85937 1.2183,1.2842 0.12816,0.13184 0.25879,0.26368 0.39062,0.39308 0.31982,0.32226 0.64452,0.63965 0.9729,0.95458 0.13305,0.12695 0.26489,0.25635 0.39795,0.37842 0.43822,0.4126 0.88134,0.81787 1.333,1.2134 0.0075,0.007 0.01337,0.0125 0.02075,0.0171 0.07688,0.0684 0.15625,0.13184 0.23194,0.19775 0.39795,0.34424 0.80322,0.68604 1.2109,1.023 0.16601,0.13428 0.33448,0.26612 0.50171,0.40039 0.33325,0.26611 0.67016,0.52979 1.0095,0.78858 0.17945,0.13672 0.35889,0.27343 0.53956,0.41016 0.37475,0.27587 0.75195,0.54687 1.1328,0.81299 0.13915,0.10012 0.27344,0.19775 0.41259,0.29296 0.039,0.0269 0.0745,0.0537 0.1135,0.0806 0.36134,0.24902 0.7312,0.48827 1.0999,0.72754 0.15869,0.105 0.31616,0.21483 0.47608,0.31737 0.5664,0.35889 1.1414,0.7129 1.7224,1.0547 0.15746,0.0904 0.31738,0.17822 0.47606,0.26856 0.42725,0.24658 0.85694,0.48828 1.2927,0.7251 0.2356,0.12695 0.4773,0.24658 0.71534,0.36865 0.30761,0.16113 0.61279,0.3247 0.92529,0.48095 0.07075,0.0343 0.14405,0.0684 0.21362,0.1025 0.12574,0.061 0.25269,0.11963 0.37842,0.18311 0.48461,0.23194 0.9729,0.45899 1.4661,0.67872 0.105,0.0464 0.2063,0.0928 0.31006,0.13916 0.56518,0.24657 1.1352,0.48339 1.7102,0.71045 0.13794,0.0561 0.2771,0.10987 0.41626,0.16356 0.53222,0.20509 1.0718,0.40773 1.6138,0.59815 0.06838,0.0244 0.13429,0.0464 0.20264,0.0707 0.59449,0.20753 1.1951,0.40039 1.7993,0.58838 0.14404,0.0415 0.2893,0.0879 0.43456,0.1294 0.61524,0.18555 1.2232,0.40771 1.8579,0.5249 40.309996,7.3511 52.018996,-24.224 52.018996,-24.224 -9.834,12.812 -27.29,16.191 -43.828996,12.429 -0.62622,-0.1416 -1.2341,-0.33691 -1.8457,-0.51758 -0.15504,-0.0464 -0.30762,-0.0927 -0.46021,-0.13916 -0.59692,-0.1831 -1.189,-0.37597 -1.7773,-0.57861 -0.08062,-0.0292 -0.16236,-0.0586 -0.24415,-0.0879 -0.52734,-0.18555 -1.0486,-0.38086 -1.5674,-0.58105 -0.14649,-0.0586 -0.29298,-0.11475 -0.43945,-0.17334 -0.56885,-0.22461 -1.134,-0.45899 -1.6919,-0.70312 -0.11475,-0.0489 -0.22461,-0.10013 -0.33814,-0.14894 -0.47974,-0.21728 -0.95459,-0.437 -1.427,-0.66406 -0.13671,-0.0659 -0.27344,-0.12939 -0.4126,-0.19775 -0.371,-0.181 -0.738,-0.374 -1.104,-0.562 -0.245,-0.129 -0.494,-0.251 -0.737,-0.386 -0.447,-0.239 -0.886,-0.488 -1.323,-0.742 -0.148,-0.083 -0.298,-0.163 -0.447,-0.249 -0.581,-0.342 -1.155,-0.696 -1.723,-1.055 -0.157,-0.1 -0.31,-0.207 -0.465,-0.31 -0.412,-0.266 -0.822,-0.537 -1.226,-0.815 -0.134,-0.091 -0.263,-0.188 -0.395,-0.278 -0.39,-0.276 -0.776,-0.555 -1.159,-0.838 -0.174,-0.129 -0.345,-0.259 -0.514,-0.388 -0.351,-0.269 -0.7,-0.54 -1.046,-0.818 -0.15625,-0.1245 -0.3125,-0.24902 -0.46631,-0.37354 -0.43945,-0.36132 -0.87402,-0.7251 -1.3025,-1.0986 -0.04512,-0.039 -0.094,-0.0781 -0.14282,-0.11963 -0.46386,-0.40771 -0.91919,-0.8252 -1.3696,-1.2451 -0.13062,-0.1245 -0.25758,-0.24659 -0.38575,-0.3711 -0.33325,-0.31738 -0.66161,-0.6372 -0.98389,-0.96435 -0.12939,-0.1294 -0.25879,-0.25635 -0.38574,-0.38575 -0.41015,-0.41991 -0.81299,-0.84473 -1.2073,-1.2768 -0.0195,-0.022 -0.04025,-0.0415 -0.05975,-0.0635 -0.41749,-0.45655 -0.8252,-0.92285 -1.2244,-1.394 -0.10862,-0.12939 -0.21362,-0.2539 -0.32105,-0.38085 -0.29785,-0.35889 -0.59326,-0.72266 -0.88135,-1.0889 -0.108,-0.132 -0.216,-0.267 -0.323,-0.403 -0.347,-0.45 -0.686,-0.899 -1.018,-1.355 -9.1823,-12.525 -12.481,-29.8 -5.142,-43.987" />
      <path
         style="fill:#0868ac;fill-rule:nonzero"
         inkscape:connector-curvature="0"
         id="path3259"
         d="m 67.692984,256.86215 c -6.0278,8.6743 -5.7007,20.286 -0.99854,29.46 0.78858,1.5381 1.6748,3.0298 2.666,4.4507 0.90331,1.2939 1.9043,2.8345 3.103,3.8745 0.43458,0.47852 0.88868,0.94482 1.3525,1.4038 0.11712,0.11963 0.23681,0.23438 0.35645,0.35157 0.45044,0.43701 0.9082,0.8667 1.3818,1.2842 0.0195,0.0146 0.03663,0.0341 0.05613,0.0489 0.005,0.005 0.01,0.007 0.01337,0.0125 0.52368,0.45899 1.0644,0.90089 1.6138,1.3354 0.12212,0.0927 0.24292,0.19044 0.36621,0.28565 0.55054,0.42237 1.1121,0.8374 1.6882,1.2329 0.01713,0.0125 0.03175,0.0244 0.04888,0.0366 0.25391,0.17578 0.5127,0.33936 0.77026,0.50781 0.12325,0.0806 0.24049,0.16602 0.365,0.2417 0.41138,0.26367 0.82762,0.52002 1.2512,0.7666 0.05987,0.0366 0.11838,0.0684 0.177,0.1025 0.365,0.20995 0.73486,0.41747 1.106,0.61767 0.12939,0.0732 0.26122,0.13672 0.39306,0.20508 0.25635,0.13427 0.5127,0.271 0.77392,0.40039 0.039,0.0195 0.07937,0.0366 0.11712,0.0538 0.53101,0.26122 1.0669,0.5127 1.6138,0.75195 0.11712,0.0513 0.23804,0.0976 0.35644,0.14648 0.43701,0.18555 0.87891,0.36622 1.3232,0.53712 0.18799,0.0708 0.37841,0.13916 0.5664,0.20751 0.40284,0.14892 0.80689,0.28565 1.2146,0.42236 0.18432,0.0586 0.365,0.11963 0.54932,0.17579 0.57982,0.18066 1.1523,0.40771 1.7566,0.50781 31.122996,5.1562 38.307996,-18.806 38.307996,-18.806 -6.477,9.3286 -19.02,13.779 -32.404996,10.305 -0.59449,-0.15625 -1.1804,-0.32715 -1.7627,-0.51027 -0.17822,-0.0537 -0.35279,-0.11225 -0.52979,-0.17088 -0.41381,-0.13429 -0.82519,-0.27589 -1.2329,-0.42482 -0.18676,-0.0684 -0.37352,-0.13671 -0.55664,-0.20751 -0.44678,-0.1709 -0.88868,-0.34912 -1.3269,-0.53467 -0.11962,-0.0513 -0.24049,-0.0976 -0.35768,-0.15137 -0.54931,-0.23926 -1.0901,-0.49072 -1.6235,-0.7544 -0.27466,-0.13427 -0.54444,-0.27587 -0.81421,-0.41503 -0.15625,-0.0805 -0.31372,-0.16113 -0.46998,-0.2417 -0.34668,-0.18799 -0.69091,-0.3833 -1.0303,-0.58105 -0.0805,-0.0464 -0.16479,-0.0904 -0.24658,-0.13917 -0.42115,-0.24658 -0.83619,-0.50048 -1.2476,-0.76171 -0.12695,-0.0806 -0.24902,-0.16846 -0.37598,-0.25147 -0.271,-0.17578 -0.54199,-0.354 -0.8081,-0.53467 -0.57374,-0.39551 -1.1316,-0.81055 -1.6821,-1.2305 -0.12695,-0.10013 -0.2539,-0.19775 -0.37841,-0.29785 -5.859,-4.626 -10.503,-10.947 -12.711,-18.115 -2.314,-7.434 -1.815,-15.779 2.194,-22.551" />
      <path
         style="fill:#0868ac;fill-rule:nonzero"
         inkscape:connector-curvature="0"
         id="path3261"
         d="m 89.453984,249.32115 c -3.5535,5.2295 -3.9026,11.724 -1.4368,17.5 2.6001,6.1304 7.9285,10.94 14.146996,13.22 0.25635,0.0953 0.5127,0.18066 0.77271,0.26855 0.1135,0.0342 0.22582,0.0733 0.34058,0.10737 0.36621,0.11475 0.72998,0.24903 1.1084,0.31983 17.185,3.3203 21.846,-8.8184 23.087,-10.605 -4.0832,5.8789 -10.945,7.29 -19.364,5.2466 -0.665,-0.162 -1.396,-0.402 -2.037,-0.629 -0.822,-0.293 -1.632,-0.627 -2.419,-1.005 -1.495,-0.718 -2.92,-1.59 -4.240996,-2.588 -7.534,-5.716 -12.214,-16.621 -7.298,-25.502" />
      <path
         style="fill:#0868ac;fill-rule:nonzero"
         inkscape:connector-curvature="0"
         id="path3263"
         d="m 283.00098,351.17615 c 0,0 -4.9536,11.282 -4.9536,11.282 h -5.4688 c 0,0 0.448,-10.251 0.448,-10.251 0,0 -4.0259,10.251 -4.0259,10.251 h -5.2954 c 0,0 -0.13916,-11.282 -0.13916,-11.282 0,0 0.58471,-2.7856 0.58471,-2.7856 h 3.75 c 0,0 -0.72264,11.143 -0.72264,11.143 0,0 4.1626,-11.143 4.1626,-11.143 h 5.2283 c 0,0 -0.37841,11.282 -0.37841,11.282 0,0 4.1284,-11.282 4.1284,-11.282 h 3.2666 c 0,0 -0.58471,2.7856 -0.58471,2.7856 z" />
      <path
         style="fill:#0868ac;fill-rule:nonzero"
         inkscape:connector-curvature="0"
         id="path3265"
         d="m 291.63098,354.51615 c 0.48217,-2.2022 0.34424,-2.6148 -0.79103,-2.6148 h -1.72 c 0,0 -1.1011,5.1611 -1.1011,5.1611 0,0 -1.6858,5.398 -1.6858,5.398 h -3.1982 c 0,0 2.6135,-12.244 2.6135,-12.244 0,0 0.37964,-1.7896 0.37964,-1.7896 h 2.9236 c 0,0 0.37841,0.82518 0.37841,0.82518 0,0 1.6858,-0.99608 3.335,-0.99608 3.5095,0 3.2348,2.6465 2.4768,6.2598 h -3.6108 z" />
      <path
         style="fill:#0868ac;fill-rule:nonzero"
         inkscape:connector-curvature="0"
         id="path3267"
         d="m 302.02098,346.63615 c -1.4087,0 -2.3035,-0.4126 -1.9604,-2.1314 0.37841,-1.7212 1.4795,-2.1338 2.854,-2.1338 1.3782,0 2.3059,0.41259 1.9275,2.1338 -0.34424,1.6846 -1.4441,2.1314 -2.821,2.1314 z m -1.5124,15.823 h -3.1665 c 0,0 0.62011,-5.5029 0.62011,-5.5029 0,0 1.1011,-5.0903 1.1011,-5.0903 0,0 -2.2009,-0.4834 -2.2009,-0.4834 0,0 0.6189,-2.9907 0.6189,-2.9907 h 6.0181 c 0,0 -2.9907,14.067 -2.9907,14.067 z" />
      <path
         style="fill:#0868ac;fill-rule:nonzero"
         inkscape:connector-curvature="0"
         id="path3269"
         d="m 314.23098,351.37615 c 0,0 -3.9551,0.4834 -3.9551,0.4834 0,0 -1.1365,5.3662 -1.1365,5.3662 -0.31005,1.4795 -0.31005,1.8921 0.99853,1.8921 h 2.6477 c 0,0 -0.55054,2.8198 -0.55054,2.8198 0,0 -2.406,0.72265 -3.4399,0.72265 -4.0588,0 -4.0247,-2.2363 -3.3008,-5.5737 0,0 1.1011,-5.2612 1.1011,-5.2612 0,0 -2.2022,-0.48096 -2.2022,-0.48096 0,0 0.65308,-2.9932 0.65308,-2.9932 h 2.3059 c 0,0 1.3074,-3.5449 1.3074,-3.5449 h 3.1299 c 0,0 -0.75805,3.5449 -0.75805,3.5449 h 3.8525 c 0,0 -0.65308,3.0249 -0.65308,3.0249 z" />
      <path
         style="fill:#0868ac;fill-rule:nonzero"
         inkscape:connector-curvature="0"
         id="path3271"
         d="m 322.45098,351.55615 c -1.8567,0 -2.821,0.96436 -3.1982,2.6831 0,0 5.2966,-0.44677 5.2966,-0.44677 0.24048,-1.1694 0,-2.2363 -2.0984,-2.2363 z m -3.7134,5.227 c -0.24293,1.7212 0.41138,2.3047 2.6123,2.3047 h 5.5371 c 0,0 -0.54933,2.6148 -0.54933,2.6148 0,0 -3.3362,0.92774 -5.813,0.92774 -6.1572,0 -6.2268,-3.4717 -5.4346,-7.1875 0.791,-3.6475 2.2009,-7.2559 8.1506,-7.2559 5.7459,0 6.0217,3.4717 4.6106,8.5962 h -9.1138 z" />
      <path
         style="fill:#0868ac;fill-rule:nonzero"
         inkscape:connector-curvature="0"
         id="path3273"
         d="m 340.47098,362.45615 h -3.1628 c 0,0 0.61888,-5.5029 0.61888,-5.5029 0,0 2.2363,-10.457 2.2363,-10.457 0,0 -2.2034,-0.51514 -2.2034,-0.51514 0,0 0.65431,-2.9932 0.65431,-2.9932 h 6.0205 c 0,0 -4.1638,19.468 -4.1638,19.468 z" />
      <path
         style="fill:#0868ac;fill-rule:nonzero"
         inkscape:connector-curvature="0"
         id="path3275"
         d="m 351.90098,351.55615 c -1.8591,0 -2.821,0.96436 -3.2007,2.6831 0,0 5.2978,-0.44677 5.2978,-0.44677 0.23925,-1.1694 0,-2.2363 -2.0972,-2.2363 z m -3.7158,5.227 c -0.24049,1.7212 0.41381,2.3047 2.6135,2.3047 h 5.5383 c 0,0 -0.55054,2.6148 -0.55054,2.6148 0,0 -3.3374,0.92774 -5.8142,0.92774 -6.1572,0 -6.2244,-3.4717 -5.4334,-7.1875 0.79222,-3.6475 2.2021,-7.2559 8.1519,-7.2559 5.7446,0 6.0193,3.4717 4.6106,8.5962 h -9.1162 z" />
      <path
         style="fill:#0868ac;fill-rule:nonzero"
         inkscape:connector-curvature="0"
         id="path3277"
         d="m 371.81098,351.72615 c 0,0 -4.0246,0.0343 -5.1245,0.0343 -2.3401,0 -2.5806,0.72021 -2.7515,1.477 0,0 -0.13915,0.68847 -0.13915,0.68847 0,0 7.4304,0.55177 7.4304,0.55177 0,0 0.0341,2.373 -0.27587,3.7134 -0.44677,2.2363 -2.7515,4.5044 -6.9128,4.5044 -2.0654,0 -5.4016,-0.78857 -5.4016,-0.78857 0,0 0.58471,-2.7173 0.58471,-2.7173 h 5.1257 c 2.2705,0 2.5806,-0.62013 2.7197,-1.2378 0,0 0.17088,-0.89355 0.17088,-0.89355 0,0 -7.2925,-0.55176 -7.2925,-0.55176 0,0 -0.27466,-1.8237 0.1025,-3.645 0.55176,-2.478 2.8198,-4.6094 6.9824,-4.6094 2.0642,0 5.4004,0.75439 5.4004,0.75439 0,0 -0.6189,2.7197 -0.6189,2.7197 z" />
      <path
         style="fill:#0868ac;fill-rule:nonzero"
         inkscape:connector-curvature="0"
         id="path3279"
         d="m 385.64098,351.72615 c 0,0 -4.0234,0.0343 -5.1245,0.0343 -2.3389,0 -2.5793,0.72021 -2.7515,1.477 0,0 -0.13917,0.68847 -0.13917,0.68847 0,0 7.4316,0.55177 7.4316,0.55177 0,0 0.0341,2.373 -0.27587,3.7134 -0.44678,2.2363 -2.7515,4.5044 -6.9141,4.5044 -2.063,0 -5.4004,-0.78857 -5.4004,-0.78857 0,0 0.58471,-2.7173 0.58471,-2.7173 h 5.1257 c 2.2693,0 2.5793,-0.62013 2.7185,-1.2378 0,0 0.1709,-0.89355 0.1709,-0.89355 0,0 -7.2925,-0.55176 -7.2925,-0.55176 0,0 -0.27465,-1.8237 0.1025,-3.645 0.55175,-2.478 2.8198,-4.6094 6.9836,-4.6094 2.063,0 5.3992,0.75439 5.3992,0.75439 0,0 -0.6189,2.7197 -0.6189,2.7197 z" />
      <path
         style="fill:#0868ac;fill-rule:nonzero"
         inkscape:connector-curvature="0"
         id="path3281"
         d="m 389.97098,364.69615 h -2.7502 c 0,0 0.1025,-2.0654 0.1025,-2.0654 -0.99854,-0.0659 -1.5137,-0.78858 -1.2732,-1.9946 0.37842,-1.7188 1.4453,-2.1313 2.8552,-2.1313 1.3757,0 2.3022,0.41259 1.9263,2.1313 0,0 -0.8606,4.0601 -0.8606,4.0601 z" />
      <path
         style="fill:#0868ac;fill-rule:nonzero"
         inkscape:connector-curvature="0"
         id="path3283"
         d="m 408.37098,351.86615 c -2.063,0 -2.7844,1.2378 -3.2666,3.5083 -0.48218,2.2705 -0.34424,3.6108 1.7188,3.6108 h 2.8552 c 0,0 1.5832,-7.1191 1.5832,-7.1191 h -2.8906 z m 4.7131,8.7695 c 0,0 -0.37964,1.8237 -0.37964,1.8237 0,0 -2.887,-0.0341 -2.887,-0.0341 0,0 -0.41381,-0.89356 -0.41381,-0.89356 0,0 -2.5464,1.0986 -4.2639,1.0986 -4.4043,0 -4.6106,-3.6108 -3.8196,-7.2559 0.79102,-3.7158 2.511,-7.2241 6.8799,-7.2241 1.5832,0 3.7146,0.79102 3.7146,0.79102 0,0 1.7542,-5.9497 1.7542,-5.9497 h 3.1653 c 0,0 -3.75,17.644 -3.75,17.644 z" />
      <path
         style="fill:#0868ac;fill-rule:nonzero"
         inkscape:connector-curvature="0"
         id="path3285"
         d="m 424.47098,351.72615 c -2.6819,0 -3.5437,1.5112 -4.0247,3.7134 -0.44677,2.2363 -0.23925,3.75 2.4072,3.75 2.7527,0 3.5791,-1.4795 4.0588,-3.75 0.48339,-2.1338 0.34424,-3.7134 -2.4414,-3.7134 z m -2.3376,10.938 c -5.6763,0 -6.1243,-3.5425 -5.3674,-7.2241 0.79224,-3.6792 2.7869,-7.1875 8.4631,-7.1875 5.6396,0 6.1572,3.5083 5.3638,7.1875 -0.78979,3.75 -2.7856,7.2241 -8.4595,7.2241 z" />
      <path
         style="fill:#0868ac;fill-rule:nonzero"
         inkscape:connector-curvature="0"
         id="path3287"
         d="m 454.33098,362.45615 c 0,0 0.62012,-5.4346 0.62012,-5.4346 0,0 0.30883,-1.5478 0.30883,-1.5478 0.448,-2.063 0.72266,-3.5767 -1.4453,-3.5767 h -1.6846 c 0.0696,1.0669 -0.13794,2.2705 -0.41259,3.5425 0,0 -1.4783,7.0166 -1.4783,7.0166 h -3.1995 c 0,0 0.6189,-5.4346 0.6189,-5.4346 0,0 0.30883,-1.5478 0.30883,-1.5478 0.44799,-2.063 0.72143,-3.5767 -1.4429,-3.5767 h -1.377 c 0,0 -2.2705,10.559 -2.2705,10.559 h -3.6816 c 0,0 2.9932,-14.067 2.9932,-14.067 h 2.8894 c 0,0 0.44678,0.85937 0.44678,0.85937 0,0 1.9617,-1.0327 3.5437,-1.0327 1.2036,0 2.0984,0.55176 2.4084,1.2378 0.68726,-0.37842 2.6489,-1.2378 4.0601,-1.2378 4.3994,0 4.2639,3.5767 3.4717,7.2241 0,0 -1.4783,7.0166 -1.4783,7.0166 h -3.1995 z" />
      <path
         style="fill:#0868ac;fill-rule:nonzero"
         inkscape:connector-curvature="0"
         id="path3289"
         d="m 468.95098,351.72615 c -2.6843,0 -3.5437,1.5112 -4.0247,3.7134 -0.44677,2.2363 -0.23925,3.75 2.4072,3.75 2.7515,0 3.5791,-1.4795 4.0601,-3.75 0.48096,-2.1338 0.34301,-3.7134 -2.4426,-3.7134 z m -2.3389,10.938 c -5.6775,0 -6.123,-3.5425 -5.3662,-7.2241 0.79101,-3.6792 2.7856,-7.1875 8.4619,-7.1875 5.6421,0 6.1572,3.5083 5.365,7.1875 -0.7898,3.75 -2.7856,7.2241 -8.4607,7.2241 z" />
      <path
         style="fill:#0868ac;fill-rule:nonzero"
         inkscape:connector-curvature="0"
         id="path3291"
         d="m 484.63098,354.51615 c 0.48096,-2.2022 0.34424,-2.6148 -0.7898,-2.6148 h -1.7212 c 0,0 -1.1011,5.1611 -1.1011,5.1611 0,0 -1.6858,5.398 -1.6858,5.398 h -3.1982 c 0,0 2.6135,-12.244 2.6135,-12.244 0,0 0.37963,-1.7896 0.37963,-1.7896 h 2.9236 c 0,0 0.3772,0.82518 0.3772,0.82518 0,0 1.6858,-0.99608 3.3386,-0.99608 3.5071,0 3.2312,2.6465 2.4744,6.2598 h -3.6108 z" />
      <path
         style="fill:#0868ac;fill-rule:nonzero"
         inkscape:connector-curvature="0"
         id="path3293"
         d="m 496.95098,351.55615 c -1.8555,0 -2.8198,0.96436 -3.197,2.6831 0,0 5.2942,-0.44677 5.2942,-0.44677 0.24292,-1.1694 0,-2.2363 -2.0972,-2.2363 z m -3.7146,5.227 c -0.23925,1.7212 0.4126,2.3047 2.6135,2.3047 h 5.5383 c 0,0 -0.54932,2.6148 -0.54932,2.6148 0,0 -3.3374,0.92774 -5.813,0.92774 -6.1572,0 -6.2256,-3.4717 -5.437,-7.1875 0.79223,-3.6475 2.2034,-7.2559 8.1531,-7.2559 5.7434,0 6.0205,3.4717 4.6094,8.5962 h -9.115 z" />
      <path
         style="fill:#0868ac;fill-rule:nonzero"
         inkscape:connector-curvature="0"
         id="path3295"
         d="m 505.44098,362.66615 c -1.4453,0 -2.3376,-0.41259 -1.9592,-2.0972 0.34179,-1.7236 1.4087,-2.1338 2.8552,-2.1338 1.3403,0 2.2681,0.41015 1.9263,2.1338 -0.38086,1.6504 -1.4795,2.0972 -2.8223,2.0972 z" />
    </g>
    <g
       id="g4759"
       transform="matrix(0.358101,0,0,0.358101,74.616915,855.05131)">
      <g
         id="g4721"
         style="fill:#00618a;fill-rule:nonzero;stroke:none"
         transform="translate(0.738281,121.593)">
        <path
           id="path4723"
           d="m 0,62.235 c 0,0 12.8418,0 12.8418,0 0,0 0,-50.711 0,-50.711 0,0 19.8808,44.208 19.8808,44.208 2.3457,5.351 5.5567,7.244 11.8536,7.244 6.2978,0 9.3847,-1.893 11.7314,-7.244 0,0 19.8799,-44.208 19.8799,-44.208 0,0 0,50.711 0,50.711 0,0 12.8428,0 12.8428,0 0,0 0,-50.628 0,-50.628 0,-4.939 -1.9766,-7.327 -6.0508,-8.561 C 73.2246,0 66.6797,2.634 63.7158,9.22 c 0,0 -19.5098,43.63 -19.5098,43.63 0,0 -18.8925,-43.63 -18.8925,-43.63 C 22.4736,2.634 15.8056,0 6.05078,3.046 1.97559,4.28 0,6.668 0,11.607 c 0,0 0,50.628 0,50.628 z"
           inkscape:connector-curvature="0" />
      </g>
      <g
         id="g4725"
         style="fill:#00618a;fill-rule:nonzero;stroke:none"
         transform="translate(100.444,142.416)">
        <path
           id="path4727"
           d="m 0.002,0.136 c 0,0 12.838,0 12.838,0 0,0 0,27.938 0,27.938 -0.12,1.518 0.487,5.08 7.522,5.191 3.589,0.056 27.7,0 27.925,0 0,0 0,-33.265 0,-33.265 0,0 12.868,0 12.868,0 0.059,0 -0.013,45.364 -0.012,45.557 0.071,11.188 -13.882,13.618 -20.313,13.806 0,0 -40.549,0 -40.549,0 0,0 0,-8.639 0,-8.639 0.071,0 40.519,0.008 40.621,-0.002 8.265,-0.873 7.289,-4.981 7.288,-6.364 0,0 0,-3.368 0,-3.368 0,0 -27.295,0 -27.295,0 C 8.196,40.873 0.109,35.331 0.009,28.955 0,28.364 0.283,0.415 0.002,0.136 z"
           inkscape:connector-curvature="0" />
      </g>
      <g
         id="g4729"
         style="fill:#e48e00;fill-rule:nonzero;stroke:none"
         transform="translate(171.496,124.557)">
        <path
           id="path4731"
           d="m 0,59.271 c 0,0 36.92,0 36.92,0 4.322,0 8.521,-0.905 11.855,-2.47 5.556,-2.551 8.273,-6.008 8.273,-10.537 0,0 0,-9.384 0,-9.384 0,-3.705 -3.087,-7.163 -9.138,-9.467 -3.211,-1.236 -7.162,-1.894 -10.99,-1.894 0,0 -15.559,0 -15.559,0 -5.185,0 -7.655,-1.564 -8.272,-5.021 -0.124,-0.412 -0.124,-0.742 -0.124,-1.153 0,0 0,-5.844 0,-5.844 0,-0.33 0,-0.66 0.124,-1.071 0.617,-2.634 1.976,-3.376 6.544,-3.787 0.371,0 0.864,-0.083 1.235,-0.083 0,0 36.674,0 36.674,0 0,0 0,-8.56 0,-8.56 0,0 -36.057,0 -36.057,0 C 16.299,0 13.582,0.329 11.113,1.069 3.457,3.457 0.123,7.244 0.123,13.83 c 0,0 0,7.491 0,7.491 0,5.763 6.545,10.702 17.534,11.854 1.236,0.082 2.47,0.164 3.704,0.164 0,0 13.336,0 13.336,0 0.495,0 0.989,0 1.359,0.083 4.075,0.33 5.803,1.07 7.039,2.552 0.74,0.74 0.987,1.482 0.987,2.305 0,0 0,7.491 0,7.491 0,0.906 -0.617,2.059 -1.851,3.046 -1.112,0.988 -2.964,1.647 -5.434,1.812 -0.494,0 -0.864,0.082 -1.358,0.082 0,0 -35.439,0 -35.439,0 0,0 0,8.561 0,8.561 z"
           inkscape:connector-curvature="0" />
      </g>
      <g
         id="g4733"
         style="fill:#e48e00;fill-rule:nonzero;stroke:none"
         transform="translate(308.656,124.557)">
        <path
           id="path4735"
           d="m 0,44.371 c 0,8.808 6.544,13.748 19.757,14.736 1.234,0.082 2.47,0.164 3.704,0.164 0,0 33.464,0 33.464,0 0,0 0,-8.561 0,-8.561 0,0 -33.711,0 -33.711,0 -7.532,0 -10.372,-1.894 -10.372,-6.421 0,0 0,-44.289 0,-44.289 C 12.842,0 0,0 0,0 0,0 0,44.371 0,44.371 z"
           inkscape:connector-curvature="0" />
      </g>
      <g
         id="g4737"
         style="fill:#e48e00;fill-rule:nonzero;stroke:none"
         transform="translate(236.74,124.666)">
        <path
           id="path4739"
           d="m 0,44.711 c 0,0 0,-30.522 0,-30.522 C 0,6.435 5.445,1.732 16.209,0.247 17.323,0.083 18.561,0 19.674,0 c 0,0 24.376,0 24.376,0 1.237,0 2.352,0.083 3.589,0.247 10.765,1.485 16.209,6.188 16.209,13.942 0,0 0,30.522 0,30.522 0,6.291 -2.312,9.658 -7.641,11.852 0,0 12.65,11.418 12.65,11.418 0,0 -14.911,0 -14.911,0 0,0 -10.234,-9.238 -10.234,-9.238 0,0 -10.303,0.653 -10.303,0.653 0,0 -13.735,0 -13.735,0 -2.351,0 -4.825,-0.331 -7.548,-1.073 C 3.96,56.096 0,51.806 0,44.711 z m 13.861,-0.742 c 0,0.413 0.123,0.825 0.247,1.32 0.742,3.547 4.083,5.527 9.156,5.527 0,0 11.667,0 11.667,0 0,0 -10.717,-9.675 -10.717,-9.675 0,0 14.911,0 14.911,0 0,0 9.347,8.438 9.347,8.438 1.722,-0.918 2.856,-2.322 3.252,-4.125 0.123,-0.412 0.123,-0.825 0.123,-1.237 0,0 0,-29.285 0,-29.285 0,-0.33 0,-0.743 -0.123,-1.156 C 50.981,10.477 47.64,8.58 42.691,8.58 c 0,0 -19.427,0 -19.427,0 -5.691,0 -9.403,2.475 -9.403,6.352 0,0 0,29.037 0,29.037 z"
           inkscape:connector-curvature="0" />
      </g>
      <g
         id="g4741"
         style="fill:#00618a;fill-rule:nonzero;stroke:none"
         transform="translate(241.59,-4.64258)">
        <path
           id="path4743"
           d="m 135.289,114.997 c -7.894,-0.214 -13.924,0.52 -19.079,2.694 -1.465,0.618 -3.801,0.634 -4.04,2.47 0.805,0.844 0.93,2.104 1.57,3.142 1.231,1.992 3.309,4.661 5.163,6.061 2.026,1.529 4.114,3.165 6.286,4.489 3.863,2.356 8.176,3.701 11.896,6.061 2.192,1.391 4.37,3.143 6.509,4.713 1.057,0.776 1.768,1.983 3.142,2.469 0,-0.074 0,-0.149 0,-0.224 -0.722,-0.919 -0.908,-2.183 -1.571,-3.143 -0.972,-0.972 -1.945,-1.945 -2.918,-2.918 -2.853,-3.787 -6.475,-7.113 -10.325,-9.876 -3.07,-2.204 -9.942,-5.181 -11.223,-8.754 -0.075,-0.075 -0.149,-0.15 -0.225,-0.225 2.177,-0.245 4.726,-1.033 6.735,-1.571 3.375,-0.905 6.391,-0.671 9.876,-1.571 1.571,-0.449 3.142,-0.899 4.714,-1.347 0,-0.3 0,-0.598 0,-0.898 -1.762,-1.808 -3.018,-4.2 -4.939,-5.836 -5.026,-4.28 -10.512,-8.556 -16.161,-12.1216 -3.133,-1.9776 -7.005,-3.2627 -10.325,-4.9385 -1.117,-0.5635 -3.079,-0.8565 -3.817,-1.7959 -1.744,-2.2237 -2.694,-5.042 -4.039,-7.6319 C 99.7,78.8194 96.933,72.8936 94.437,67.1856 92.734,63.293 91.622,59.4541 89.499,55.9619 79.307,39.2051 68.336,29.0908 51.341,19.1494 47.725,17.0352 43.371,16.2002 38.77,15.1094 36.302,14.96 33.832,14.8096 31.363,14.6602 29.856,14.0303 28.288,12.1865 26.874,11.293 21.244,7.73633 6.803,0 2.633,10.1709 0,16.5908 6.568,22.8555 8.917,26.1084 c 1.649,2.2822 3.76,4.8408 4.938,7.4072 0.775,1.6866 0.909,3.378 1.572,5.1631 1.632,4.3965 3.051,9.1797 5.162,13.2432 1.067,2.0557 2.243,4.2217 3.592,6.0605 0.827,1.128 2.244,1.625 2.468,3.3672 -1.386,1.9395 -1.465,4.9502 -2.244,7.4073 -3.508,11.0615 -2.185,24.8105 2.918,32.9971 1.566,2.513 5.254,7.903 10.325,5.836 4.436,-1.807 3.445,-7.406 4.714,-12.3458 0.287,-1.1202 0.111,-1.9434 0.673,-2.6934 0,0.0742 0,0.1494 0,0.2246 1.347,2.6934 2.694,5.3867 4.041,8.0796 2.99,4.816 8.297,9.849 12.794,13.245 2.332,1.761 4.168,4.806 7.183,5.836 0,-0.075 0,-0.149 0,-0.225 -0.076,0 -0.15,0 -0.225,0 -0.584,-0.911 -1.498,-1.288 -2.244,-2.02 -1.757,-1.722 -3.71,-3.863 -5.163,-5.836 -4.09,-5.553 -7.705,-11.631 -10.998,-17.9575 -1.573,-3.0205 -2.94,-6.3535 -4.266,-9.4278 -0.511,-1.1855 -0.505,-2.9775 -1.57,-3.5917 -1.452,2.2529 -3.591,4.0742 -4.714,6.7343 -1.796,4.252 -2.028,9.4375 -2.693,14.8147 -0.394,0.141 -0.219,0.044 -0.45,0.224 -3.126,-0.754 -4.225,-3.9723 -5.386,-6.733 -2.939,-6.9824 -3.485,-18.2256 -0.899,-26.2627 0.669,-2.0791 3.693,-8.6289 2.469,-10.5498 -0.584,-1.917 -2.512,-3.0254 -3.591,-4.4902 -1.335,-1.8106 -2.668,-4.1944 -3.592,-6.2852 -2.405,-5.4443 -3.528,-11.5557 -6.06,-17.0586 -1.21,-2.6309 -3.257,-5.293 -4.938,-7.6318 C 10.872,21.0489 8.788,19.1406 7.346,16.0069 6.833,14.8936 6.136,13.1113 6.897,11.9668 7.139,11.1943 7.48,10.8721 8.244,10.6201 c 1.302,-1.00389 4.928,0.334 6.284,0.8975 3.6,1.4951 6.604,2.9189 9.653,4.9385 1.464,0.9707 2.944,2.8476 4.713,3.3672 0.673,0 1.347,0 2.02,0 3.16,0.7265 6.7,0.2256 9.652,1.122 5.218,1.586 9.894,4.0528 14.141,6.7344 12.938,8.169 23.516,19.7979 30.752,33.6699 1.164,2.2334 1.668,4.3653 2.693,6.7344 2.069,4.7774 4.675,9.6934 6.733,14.3652 2.054,4.6612 4.056,9.3653 6.959,13.2442 1.527,2.039 7.422,3.1328 10.101,4.2646 1.878,0.794 4.955,1.621 6.734,2.693 3.398,2.05 6.69,4.49 9.877,6.735 1.593,1.122 6.489,3.583 6.733,5.611 z"
           inkscape:connector-curvature="0" />
      </g>
      <g
         id="g4745"
         style="fill:#00618a;fill-rule:evenodd;stroke:none"
         transform="translate(272.504,24.8027)">
        <path
           id="path4747"
           d="M 4.041,0.0303 C 2.395,0 1.231,0.21 0,0.4786 c 0,0.0751 0,0.1503 0,0.2246 0.075,0 0.15,0 0.225,0 C 1.01,2.3164 2.396,3.3545 3.367,4.7442 4.115,6.3155 4.863,7.8868 5.612,9.4571 5.686,9.3828 5.762,9.3077 5.836,9.2334 7.226,8.2539 7.863,6.6866 7.856,4.295 7.299,3.709 7.217,2.9737 6.734,2.2744 6.092,1.3428 4.85,0.8135 4.041,0.0303 z"
           inkscape:connector-curvature="0" />
      </g>
      <g
         id="g4749"
         style="fill:#e48e00;fill-rule:evenodd;stroke:none"
         transform="translate(371.609,165.56)">
        <path
           id="path4751"
           d="m 0,9.463 c 0,5.654 4.467,9.464 9.464,9.464 4.997,0 9.464,-3.81 9.464,-9.464 C 18.928,3.81 14.461,0 9.464,0 4.467,0 0,3.81 0,9.463 z m 16.808,0 c 0,4.29 -3.28,7.496 -7.344,7.496 -4.113,0 -7.344,-3.206 -7.344,-7.496 0,-4.29 3.231,-7.496 7.344,-7.496 4.064,0 7.344,3.206 7.344,7.496 z m -4.794,5.401 c 0,0 2.119,0 2.119,0 0,0 -3.103,-4.744 -3.103,-4.744 1.665,-0.177 2.926,-0.985 2.926,-2.953 0,-2.196 -1.387,-3.104 -4.062,-3.104 0,0 -4.215,0 -4.215,0 0,0 0,10.801 0,10.801 0,0 1.817,0 1.817,0 0,0 0,-4.669 0,-4.669 0,0 1.691,0 1.691,0 0,0 2.827,4.669 2.827,4.669 z M 7.496,8.681 c 0,0 0,-3.104 0,-3.104 0,0 2.094,0 2.094,0 1.086,0 2.398,0.202 2.398,1.464 0,1.513 -1.186,1.64 -2.549,1.64 0,0 -1.943,0 -1.943,0 z"
           inkscape:connector-curvature="0" />
      </g>
    </g>
    <g
       id="g4847"
       transform="matrix(0.5330814,0,0,0.5330814,1.5429502,781.59684)">
      <ellipse
         style="fill:#6c7eb7;stroke:url(#radialGradient3870);stroke-width:5.5"
         id="ellipse3860"
         ry="76"
         rx="146"
         cy="80"
         cx="150"
         sodipodi:cx="150"
         sodipodi:cy="80"
         sodipodi:rx="146"
         sodipodi:ry="76"
         d="m 296,80 c 0,41.97364 -65.36643,76 -146,76 C 69.366427,156 4,121.97364 4,80 4,38.026359 69.366427,4 150,4 230.63357,4 296,38.026359 296,80 z" />
      <path
         style="fill-rule:evenodd;stroke:#ffffff;stroke-width:2;stroke-linejoin:round"
         id="p"
         d="m 45,125 16,-81 37,0 c 16,1 24,9 24,23 0,24 -19,38 -36,37 l -18,0 -4,21 -19,0 z m 27,-36 5,-30 13,0 c 7,0 12,3 12,9 -1,17 -9,20 -18,21 l -12,0 z"
         inkscape:connector-curvature="0" />
      <path
         style="stroke:#ffffff;stroke-width:2;stroke-linejoin:round"
         id="h"
         d="m 116,104 16,-81 19,0 -4,21 18,0 c 16,1 22,9 20,19 l -7,41 -20,0 7,-37 c 1,-5 1,-8 -6,-8 l -15,0 -9,45 -19,0 z"
         inkscape:connector-curvature="0" />
      <use
         xlink:href="#p"
         id="p2"
         transform="translate(134,0)"
         x="0"
         y="0"
         width="1"
         height="1" />
    </g>
    <g
       id="g2303"
       transform="matrix(0.57165068,0,0,0.57165068,224.06892,551.18308)">
      <path
         d="m 184.61344,61.929363 c 0,-14.56215 -4.15226,-22.03817 -12.45678,-22.44755 -3.30427,-0.15595 -6.53055,0.37039 -9.66912,1.58878 -2.505,0.89673 -4.19124,1.78372 -5.07823,2.68045 l 0,34.75812 c 5.31216,3.33351 10.02976,4.88329 14.14303,4.63962 8.70415,-0.57508 13.0611,-7.64172 13.0611,-21.21942 z m 10.24419,0.60432 c 0,7.39804 -1.73498,13.53871 -5.22444,18.422 -3.88909,5.5266 -9.27923,8.37275 -16.17042,8.52871 -5.1952,0.1657 -10.54635,-1.46207 -16.05346,-4.87355 l 0,31.590317 -8.90884,-3.17755 0,-70.120567 c 1.46206,-1.79346 3.34325,-3.3335 5.62407,-4.63961 5.30242,-3.08983 11.74524,-4.67861 19.32848,-4.75658 l 0.12671,0.12671 c 6.93018,-0.08773 12.27159,2.75843 16.02422,8.5287 3.4992,5.29267 5.25368,12.07665 5.25368,20.37142 z"
         style="fill:#646464;fill-opacity:1"
         id="path46"
         inkscape:connector-curvature="0" />
      <path
         d="m 249.30487,83.265743 c 0,9.92254 -0.9942,16.794237 -2.9826,20.615097 -1.99816,3.82086 -5.79952,6.8717 -11.41385,9.14277 -4.55189,1.79346 -9.47417,2.76817 -14.75709,2.93387 l -1.47181,-5.61432 c 5.37064,-0.73103 9.15252,-1.46207 11.34561,-2.1931 4.31796,-1.46206 7.28108,-3.70389 8.90884,-6.706 1.30611,-2.446517 1.94942,-7.115367 1.94942,-14.026057 l 0,-2.3198 c -6.09193,2.76817 -12.47628,4.14251 -19.15303,4.14251 -4.38619,0 -8.25579,-1.37434 -11.58929,-4.14251 -3.74289,-3.01186 -5.61433,-6.83272 -5.61433,-11.46258 l 0,-37.07793 8.90884,-3.05084 0,37.3216 c 0,3.98656 1.28662,7.0569 3.85985,9.21101 2.57323,2.1541 5.90674,3.18729 9.99077,3.10932 4.08403,-0.08773 8.46047,-1.66676 13.10983,-4.75658 l 0,-43.54025 8.90884,0 0,48.41379 z"
         style="fill:#646464;fill-opacity:1"
         id="path48"
         inkscape:connector-curvature="0" />
      <path
         d="m 284.08249,88.997033 c -1.06243,0.08772 -2.03714,0.12671 -2.93387,0.12671 -5.03925,0 -8.96733,-1.19889 -11.77449,-3.60642 -2.79742,-2.40753 -4.20099,-5.73129 -4.20099,-9.97127 l 0,-35.08953 -6.10168,0 0,-5.60457 6.10168,0 0,-14.88381 8.89909,-3.16781 0,18.05162 10.01026,0 0,5.60457 -10.01026,0 0,34.84585 c 0,3.34325 0.89673,5.71179 2.6902,7.09588 1.54004,1.14041 3.98656,1.79347 7.32006,1.95917 l 0,4.63961 z"
         style="fill:#646464;fill-opacity:1"
         id="path50"
         inkscape:connector-curvature="0" />
      <path
         d="m 338.02288,88.266003 -8.90884,0 0,-34.38773 c 0,-3.49921 -0.81876,-6.51106 -2.44651,-9.02581 -1.88119,-2.84615 -4.49342,-4.26923 -7.84641,-4.26923 -4.08404,0 -9.19152,2.15411 -15.32242,6.46233 l 0,41.22044 -8.90885,0 0,-82.1972101 8.90885,-2.80716 0,37.4385701 c 5.6923,-4.14251 11.91093,-6.21864 18.66566,-6.21864 4.7176,0 8.53846,1.58877 11.46258,4.75658 2.93388,3.1678 4.39594,7.11537 4.39594,11.83296 l 0,37.1949 0,0 z"
         style="fill:#646464;fill-opacity:1"
         id="path52"
         inkscape:connector-curvature="0" />
      <path
         d="m 385.37424,60.525783 c 0,-5.59483 -1.06242,-10.21495 -3.17755,-13.87011 -2.51474,-4.45442 -6.42332,-6.80347 -11.70625,-7.04715 -9.76658,0.56534 -14.64012,7.56375 -14.64012,20.97574 0,6.15042 1.01369,11.28713 3.06057,15.41015 2.61223,5.25368 6.53056,7.84641 11.755,7.75869 9.80557,-0.07798 14.70835,-7.81717 14.70835,-23.22732 z m 9.75685,0.05848 c 0,7.96338 -2.03714,14.5914 -6.10168,19.88407 -4.47391,5.92623 -10.65357,8.89909 -18.53897,8.89909 -7.81716,0 -13.90909,-2.97286 -18.30503,-8.89909 -3.98656,-5.29267 -5.97497,-11.92069 -5.97497,-19.88407 0,-7.48576 2.15411,-13.78238 6.46232,-18.90935 4.5519,-5.43888 10.53661,-8.16806 17.93464,-8.16806 7.39805,0 13.42174,2.72918 18.06137,8.16806 4.3082,5.12697 6.46232,11.42359 6.46232,18.90935 z"
         style="fill:#646464;fill-opacity:1"
         id="path54"
         inkscape:connector-curvature="0" />
      <path
         d="m 446.20583,88.266003 -8.90884,0 0,-36.33715 c 0,-3.98656 -1.19889,-7.09588 -3.59667,-9.33772 -2.39779,-2.23208 -5.59483,-3.31401 -9.58139,-3.22628 -4.23023,0.07798 -8.25579,1.46206 -12.07664,4.14251 l 0,44.75864 -8.90884,0 0,-45.86006 c 5.12697,-3.73313 9.84456,-6.16991 14.15276,-7.31032 4.06455,-1.06243 7.65148,-1.58877 10.74131,-1.58877 2.11512,0 4.10352,0.20469 5.97496,0.61406 3.49921,0.80901 6.34535,2.31006 8.53845,4.51291 2.44651,2.43677 3.6649,5.3609 3.6649,8.78212 l 0,40.85006 z"
         style="fill:#646464;fill-opacity:1"
         id="path56"
         inkscape:connector-curvature="0" />
      <path
         d="m 60.510156,6.3979729 c -4.583653,0.021298 -8.960939,0.4122177 -12.8125,1.09375 C 36.35144,9.4962267 34.291407,13.691825 34.291406,21.429223 l 0,10.21875 26.8125,0 0,3.40625 -26.8125,0 -10.0625,0 c -7.792459,0 -14.6157592,4.683717 -16.7500002,13.59375 -2.46182,10.212966 -2.5710151,16.586023 0,27.25 1.9059283,7.937852 6.4575432,13.593748 14.2500002,13.59375 l 9.21875,0 0,-12.25 c 0,-8.849902 7.657144,-16.656248 16.75,-16.65625 l 26.78125,0 c 7.454951,0 13.406253,-6.138164 13.40625,-13.625 l 0,-25.53125 c 0,-7.266339 -6.12998,-12.7247775 -13.40625,-13.9375001 -4.605987,-0.7667253 -9.385097,-1.1150483 -13.96875,-1.09375 z m -14.5,8.2187501 c 2.769547,0 5.03125,2.298646 5.03125,5.125 -2e-6,2.816336 -2.261703,5.09375 -5.03125,5.09375 -2.779476,-1e-6 -5.03125,-2.277415 -5.03125,-5.09375 -1e-6,-2.826353 2.251774,-5.125 5.03125,-5.125 z"
         style="fill:url(#linearGradient1478);fill-opacity:1"
         id="path1948"
         inkscape:connector-curvature="0" />
      <path
         d="m 91.228906,35.054223 0,11.90625 c 0,9.230755 -7.825895,16.999999 -16.75,17 l -26.78125,0 c -7.335833,0 -13.406249,6.278483 -13.40625,13.625 l 0,25.531247 c 0,7.26634 6.318588,11.54032 13.40625,13.625 8.487331,2.49561 16.626237,2.94663 26.78125,0 6.750155,-1.95439 13.406253,-5.88761 13.40625,-13.625 l 0,-10.218747 -26.78125,0 0,-3.40625 26.78125,0 13.406254,0 c 7.79246,0 10.69625,-5.435408 13.40624,-13.59375 2.79933,-8.398886 2.68022,-16.475776 0,-27.25 -1.92578,-7.757441 -5.60387,-13.59375 -13.40624,-13.59375 l -10.062504,0 z m -15.0625,64.65625 c 2.779478,3e-6 5.03125,2.277417 5.03125,5.093747 -2e-6,2.82635 -2.251775,5.125 -5.03125,5.125 -2.76955,0 -5.03125,-2.29865 -5.03125,-5.125 2e-6,-2.81633 2.261697,-5.093747 5.03125,-5.093747 z"
         style="fill:url(#linearGradient1475);fill-opacity:1"
         id="path1950"
         inkscape:connector-curvature="0" />
      <path
         d="m 463.5544,26.909383 1.56195,0 0,-9.79624 3.70013,0 0,-1.16766 -8.96221,0 0,1.16766 3.70013,0 0,9.79624 m 6.64702,0 1.33447,0 0,-8.94703 2.89641,8.945906 1.48569,0 3.01816,-8.915576 0,8.9167 1.45579,0 0,-10.9639 -1.92589,0 -3.29831,9.392857 -2.81297,-9.392857 -2.15335,0 0,10.9639"
         style="font-size:15.16445827px;font-style:normal;font-weight:normal;line-height:125%;fill:#646464;fill-opacity:1;stroke:none;font-family:Bitstream Vera Sans"
         id="text3004"
         inkscape:connector-curvature="0" />
      <path
         d="m 110.46717,132.28575 a 48.948285,8.606678 0 1 1 -97.896571,0 48.948285,8.606678 0 1 1 97.896571,0 z"
         transform="matrix(0.73406,0,0,0.809524,16.24958,27.00935)"
         style="opacity:0.44382019;fill:url(#radialGradient1480);fill-opacity:1;fill-rule:nonzero;stroke:none"
         id="path1894"
         inkscape:connector-curvature="0" />
    </g>
    <g
       id="g5243"
       transform="matrix(1.5188983,0,0,1.5188983,313.23179,695.99212)">
      <g
         id="fond" />
      <g
         id="compacte" />
      <g
         id="rectangle" />
      <g
         id="carr">
        <g
           id="g5211">
          <g
             id="g5213">
            <circle
               id="circle5215"
               r="28.072001"
               cy="58.07"
               cx="58.657001"
               sodipodi:cx="58.657001"
               sodipodi:cy="58.07"
               sodipodi:rx="28.072001"
               sodipodi:ry="28.072001"
               d="m 86.729002,58.07 c 0,15.503737 -12.568263,28.072 -28.072001,28.072 -15.503737,0 -28.072,-12.568263 -28.072,-28.072 0,-15.503738 12.568263,-28.072001 28.072,-28.072001 15.503738,0 28.072001,12.568263 28.072001,28.072001 z" />
            <path
               id="path5217"
               d="m 70.93,40.385 c -2.851,0.1 -5.342,1.672 -7.193,3.846 -2.053,2.384 -3.417,5.213 -4.401,8.099 -1.759,-1.442 -3.116,-3.308 -5.938,-4.122 -2.183,-0.627 -4.473,-0.369 -6.58,1.201 -0.999,0.746 -1.686,1.873 -2.013,2.932 -0.848,2.754 0.889,5.205 1.679,6.086 l 1.725,1.846 c 0.356,0.363 1.211,1.309 0.794,2.664 -0.453,1.475 -2.229,2.428 -4.052,1.867 -0.814,-0.252 -1.984,-0.857 -1.721,-1.709 0.108,-0.35 0.358,-0.613 0.493,-0.912 0.123,-0.26 0.181,-0.454 0.218,-0.568 0.333,-1.088 -0.122,-2.502 -1.286,-2.861 -1.087,-0.332 -2.197,-0.068 -2.628,1.329 -0.49,1.591 0.271,4.472 4.344,5.729 4.772,1.467 8.809,-1.133 9.381,-4.521 0.361,-2.122 -0.599,-3.7 -2.354,-5.729 l -1.43,-1.581 c -0.867,-0.867 -1.164,-2.342 -0.268,-3.475 0.757,-0.957 1.834,-1.365 3.601,-0.886 2.577,0.698 3.726,2.487 5.642,3.93 -0.791,2.595 -1.309,5.2 -1.776,7.538 l -0.287,1.74 c -1.371,7.186 -2.416,11.131 -5.134,13.396 -0.547,0.391 -1.331,0.973 -2.51,1.014 -0.619,0.02 -0.818,-0.406 -0.828,-0.592 -0.014,-0.434 0.353,-0.633 0.596,-0.828 0.363,-0.199 0.912,-0.527 0.875,-1.578 -0.041,-1.246 -1.071,-2.324 -2.559,-2.273 -1.117,0.037 -2.816,1.086 -2.752,3.01 0.066,1.984 1.916,3.473 4.706,3.377 1.492,-0.049 4.822,-0.656 8.103,-4.557 3.819,-4.473 4.888,-9.6 5.692,-13.352 l 0.896,-4.953 c 0.499,0.059 1.031,0.1 1.611,0.113 4.757,0.102 7.136,-2.363 7.173,-4.155 0.023,-1.085 -0.712,-2.152 -1.742,-2.128 -0.736,0.021 -1.662,0.511 -1.884,1.529 -0.217,1 1.514,1.902 0.161,2.779 -0.961,0.623 -2.684,1.061 -5.11,0.705 l 0.442,-2.439 c 0.899,-4.624 2.011,-10.312 6.224,-10.449 0.307,-0.016 1.431,0.014 1.457,0.756 0.007,0.248 -0.054,0.312 -0.344,0.88 -0.297,0.442 -0.408,0.819 -0.395,1.253 0.042,1.18 0.939,1.956 2.238,1.91 1.737,-0.057 2.237,-1.748 2.209,-2.618 -0.072,-2.045 -2.226,-3.335 -5.075,-3.243 z"
               inkscape:connector-curvature="0"
               style="fill:#ffffff" />
          </g>
          <g
             id="g5219">
            <g
               id="g5221" />
          </g>
        </g>
      </g>
    </g>
    <g
       id="g5460"
       transform="matrix(0.32062814,0,0,0.32062814,69.691073,699.75998)">
      <g
         id="g5380">
        <g
           id="g5390" />
      </g>
      <g
         id="g5404">
        <g
           id="g5406" />
        <g
           id="g5418" />
      </g>
      <g
         id="g5430">
        <polygon
           id="polygon5432"
           points="363.275,105.132 660.725,105.132 633.627,408.705 511.818,442.475 390.345,408.754 "
           style="fill:#e4a227" />
        <polygon
           id="polygon5434"
           points="511.75,129.583 511.75,416.287 610.178,389 633.336,129.583 "
           style="fill:#f0bf26" />
        <g
           id="g5436">
          <polygon
             id="polygon5438"
             points="564.936,38.071 540.246,38.071 565.922,65.931 565.922,79.191 513.039,79.191 513.039,63.665 538.709,63.665 513.039,35.806 513.039,22.525 564.936,22.525 564.936,38.071 "
             style="fill:#151515" />
          <path
             id="path5440"
             d="M 503.621,22.55 V 79.167 H 458.078 V 60.453 h 26.613 V 22.55 h 18.928 0.002 z"
             inkscape:connector-curvature="0"
             style="fill:#020202" />
        </g>
        <polygon
           id="polygon5442"
           points="470.059,327.773 467.406,298.075 447.256,298.075 430.027,298.075 435.244,356.543 511.521,377.719 511.693,377.67 511.693,338.926 511.531,338.973 "
           style="fill:#ebebeb" />
        <polygon
           id="polygon5444"
           points="516.709,279.437 516.709,242.2 470.855,242.2 476.232,183.758 516.812,182.677 516.709,143.954 442.565,143.954 439.811,171.403 431.059,269.438 430.151,279.437 440.186,279.437 "
           style="fill:#ebebeb" />
        <polygon
           id="polygon5446"
           points="557.291,185.132 560.742,223.579 580.893,223.579 598.123,223.579 591.609,151.633 516.629,143.937 516.457,143.985 516.457,182.729 516.62,182.683 "
           style="fill:#ffffff" />
        <polyline
           id="polyline5448"
           points="594.284,182.843 591.093,143.954 512.49,143.954 512.49,168.106 512.49,182.746 512.49,182.843    594.284,182.843  "
           style="fill:#ffffff" />
        <polygon
           id="polygon5450"
           points="511.564,242.218 511.564,279.454 557.418,279.454 553.096,327.748 511.564,338.959 511.564,377.701 587.904,356.543 588.463,350.252 597.215,252.217 598.123,242.218 588.088,242.218 "
           style="fill:#ffffff" />
        <path
           id="path5452"
           d="M 589.5,181.193"
           inkscape:connector-curvature="0"
           style="fill:#ffffff" />
      </g>
    </g>
    <g
       id="g5574"
       transform="matrix(0.23416493,0,0,0.23416493,-3.9681434,937.69087)">
      <g
         id="g5556" />
      <path
         id="path5558"
         d="m 453.499,256.676 c 0,-20.459 -3.164,-40.263 -8.899,-58.819 L 356.423,426.69 c 58.082,-34.365 97.075,-97.618 97.075,-170.014 z"
         inkscape:connector-curvature="0"
         style="fill:#000000" />
      <path
         id="path5560"
         d="m 193.628,443.884 c 19.63,6.594 40.642,10.137 62.526,10.137 22.866,0 44.769,-3.87 65.188,-11.029 L 261.1,286.812 193.629,443.884 z"
         inkscape:connector-curvature="0"
         style="fill:#000000" />
      <path
         id="path5562"
         d="m 66.837,200.888 c -5.212,17.684 -8.059,36.403 -8.059,55.787 0,73.954 40.714,138.393 100.894,172.155 L 67.441,202.127 66.837,200.888 z"
         inkscape:connector-curvature="0"
         style="fill:#000000" />
      <path
         id="path5564"
         d="m 167.383,188.16 -8.478,-0.379 c -18.494,-0.307 -16.446,18.893 -16.446,18.893 l 65.618,164.577 44.114,-105.37 -24.627,-62.7 c -9.861,-16.578 -33.925,-16.404 -33.925,-16.404 v -8.734 h 137.974 l -0.205,9.687 -14.356,0.891 c -17.879,0 -14.264,17.008 -14.264,17.008 l 59.873,159.939 17.162,-44.288 c 30.443,-69.017 11.663,-120.094 11.663,-120.094 -30.485,-62.72 8.038,-71.721 8.038,-71.721 2.437,-0.348 4.721,-0.542 6.963,-0.645 -36.199,-42.537 -90.122,-69.519 -150.323,-69.519 -81.398,0 -151.316,49.326 -181.474,119.706 l 92.365,-0.952 0.327,10.107 z"
         inkscape:connector-curvature="0"
         style="fill:#000000" />
      <path
         id="path5566"
         d="m 477.839,256.021 c 0,122.306 -99.522,221.839 -221.798,221.839 -122.338,0 -221.86,-99.533 -221.86,-221.839 0,-122.338 99.522,-221.829 221.86,-221.829 122.276,0.01 221.798,99.492 221.798,221.829 z M 256.041,23.972 c -127.939,0 -232.048,104.11 -232.048,232.059 0,127.949 104.11,232.007 232.048,232.007 127.918,0 231.957,-104.059 231.957,-232.007 0,-127.949 -104.038,-232.059 -231.957,-232.059 z"
         inkscape:connector-curvature="0"
         style="fill:#000000" />
    </g>
  </g>
</svg>
